<?xml version="1.0" standalone="no"?>
<!DOCTYPE svg PUBLIC "-//W3C//DTD SVG 20010904//EN"
 "http://www.w3.org/TR/2001/REC-SVG-20010904/DTD/svg10.dtd">
<svg version="1.0" xmlns="http://www.w3.org/2000/svg"
 width="384.000000pt" height="384.000000pt" viewBox="0 0 384.000000 384.000000"
 preserveAspectRatio="xMidYMid meet">
<metadata>
Created by potrace 1.14, written by Peter Selinger 2001-2017
</metadata>
<g transform="translate(0.000000,384.000000) scale(0.100000,-0.100000)"
fill="#000000" stroke="none">
<path d="M2413 3685 c0 -8 4 -12 9 -9 5 3 6 10 3 15 -9 13 -12 11 -12 -6z"/>
<path d="M2467 3675 c-4 -8 -4 -23 -2 -35 2 -11 0 -18 -6 -15 -5 4 -9 15 -9
26 0 12 -4 17 -11 14 -6 -4 -8 -14 -5 -22 3 -8 2 -11 -3 -8 -5 3 -13 0 -17 -6
-4 -8 -3 -9 4 -5 7 4 12 2 12 -3 0 -6 -6 -11 -12 -11 -9 0 -8 -3 2 -10 11 -7
17 -5 22 8 5 14 7 12 7 -6 1 -19 -3 -22 -19 -17 -15 5 -20 2 -20 -12 0 -15 -2
-16 -10 -3 -7 11 -10 3 -10 -30 -1 -39 -2 -42 -11 -21 -5 14 -7 40 -4 58 3 23
2 32 -6 28 -6 -4 -8 -13 -5 -21 3 -8 -1 -14 -9 -14 -16 0 -17 -3 -18 -63 -1
-51 -22 -42 -23 10 -1 23 -5 47 -9 53 -5 8 -4 11 3 6 6 -3 13 -2 17 4 3 5 -3
10 -13 10 -17 0 -30 -20 -36 -55 0 -5 -6 -19 -13 -31 -7 -11 -14 -34 -17 -49
-3 -16 -9 -31 -13 -34 -5 -3 -9 -17 -11 -31 -9 -79 -13 -100 -32 -154 -20 -56
-24 -74 -37 -153 -3 -18 -9 -33 -15 -33 -5 0 -6 5 -2 12 4 7 3 8 -4 4 -9 -5
-9 -12 0 -26 7 -10 16 -16 20 -14 4 3 8 1 8 -4 0 -6 -7 -13 -16 -16 -23 -9
-24 -8 -17 11 4 11 3 14 -5 9 -8 -5 -13 1 -13 16 -7 103 -32 190 -37 131 -7
-63 1 -239 11 -249 11 -11 9 -34 -4 -34 -5 0 -7 6 -3 13 4 6 -3 3 -16 -8 -13
-11 -20 -15 -17 -9 4 7 0 14 -8 18 -8 3 -15 13 -15 21 0 10 5 13 12 9 7 -4 8
-3 4 5 -4 6 -12 9 -17 6 -5 -4 -10 2 -11 12 0 10 -2 23 -3 28 -2 6 -4 15 -5
20 -1 6 -3 15 -5 20 -1 6 -3 18 -3 28 -1 10 -6 15 -12 12 -5 -3 -10 3 -10 14
0 11 -4 22 -8 25 -5 3 -1 -35 8 -85 9 -49 13 -92 9 -95 -5 -3 -9 -16 -9 -29 0
-28 -26 -40 -38 -19 -5 9 -16 14 -25 13 -15 -4 -15 -7 -3 -31 8 -15 13 -46 11
-72 -2 -29 0 -44 7 -40 5 3 7 13 3 21 -5 14 -3 14 11 2 10 -8 19 -12 21 -11 3
2 8 0 11 -4 4 -4 2 -4 -5 0 -14 7 -18 2 -27 -39 -5 -20 -4 -27 2 -20 6 6 12
19 15 30 3 11 3 -7 0 -40 -3 -33 -6 -62 -5 -65 0 -37 5 -48 22 -53 23 -6 80
42 80 66 0 9 3 18 8 20 4 3 7 -5 7 -18 0 -13 -3 -21 -6 -20 -5 3 -5 -15 0 -45
1 -3 16 -5 34 -5 17 1 38 -3 45 -8 6 -5 12 -6 12 -2 0 4 7 2 15 -5 15 -13 19
-4 18 37 -1 7 3 11 7 8 17 -10 16 21 -1 37 -15 14 -21 15 -31 4 -8 -7 -22 -12
-32 -10 -10 1 -15 0 -12 -3 3 -4 -3 -13 -15 -21 -11 -8 -23 -11 -27 -7 -4 4
-1 10 6 12 6 3 12 9 12 14 0 6 -6 7 -12 3 -10 -6 -10 -5 -1 8 7 8 10 18 6 21
-3 4 -1 7 5 7 7 0 11 6 9 13 -1 6 5 11 14 9 12 -2 16 5 13 24 -2 20 0 24 9 15
15 -15 30 -14 21 2 -5 9 -4 9 6 0 7 -7 14 -20 15 -30 3 -30 16 -63 25 -63 5 0
7 12 4 28 -3 19 -2 23 5 12 5 -8 7 -18 5 -22 -9 -15 13 -8 26 8 21 24 80 46
138 49 29 2 61 9 70 16 16 12 16 12 1 -5 -9 -9 -25 -19 -35 -21 -10 -2 -20 -4
-21 -5 -8 -6 -30 -5 -50 1 -14 5 -25 3 -33 -7 -7 -7 -18 -14 -24 -14 -7 0 -27
-11 -46 -25 -19 -14 -27 -25 -19 -25 9 0 10 -3 4 -8 -20 -13 -45 -77 -33 -81
6 -2 17 4 25 15 11 15 13 15 13 2 0 -8 -7 -21 -15 -28 -11 -9 -12 -15 -5 -20
16 -10 -8 -60 -26 -53 -8 3 -14 1 -14 -4 0 -12 40 -14 62 -2 14 8 17 6 15 -8
-1 -10 -6 -23 -10 -30 -4 -6 -1 -14 5 -16 10 -4 10 -6 1 -6 -7 -1 -13 -6 -13
-12 0 -8 5 -8 15 1 8 7 15 10 15 7 0 -9 75 15 82 27 5 8 13 7 29 -2 11 -8 18
-9 14 -3 -7 12 8 15 19 4 11 -12 56 -14 56 -3 0 5 -7 10 -15 10 -8 0 -15 5
-15 11 0 8 -6 7 -17 -2 -15 -12 -16 -12 -10 4 4 10 3 16 -2 12 -5 -3 -12 -1
-16 5 -11 19 25 22 51 5 24 -16 25 -16 15 3 -7 14 -7 19 4 19 8 0 14 -3 13 -6
-2 -20 4 -31 16 -31 8 0 16 3 19 8 2 4 2 2 1 -5 -4 -15 51 -44 63 -32 4 4 15
3 23 -2 13 -9 12 -10 -2 -5 -10 3 -18 1 -18 -3 0 -12 30 -22 42 -15 5 3 12 -3
15 -15 7 -26 35 -34 106 -29 45 2 54 0 49 -12 -5 -12 -3 -13 10 -3 8 7 19 9
24 5 4 -4 2 1 -5 11 -12 15 -12 17 4 11 14 -6 16 -4 10 7 -8 12 -6 12 8 0 15
-12 17 -11 18 5 0 18 1 18 8 -1 5 -11 7 -23 4 -27 -2 -5 3 -8 12 -8 9 0 13 4
10 10 -4 6 1 7 11 3 11 -4 13 -8 6 -11 -16 -5 -15 -23 1 -21 28 3 45 -2 75
-25 l33 -24 -34 -4 c-25 -3 -33 0 -30 9 5 12 -8 18 -29 14 -5 0 -8 5 -8 12 0
8 -4 7 -10 -3 -6 -9 -10 -10 -10 -3 0 8 -21 11 -67 10 -50 -2 -72 2 -81 13 -8
8 -11 9 -7 3 4 -10 -6 -13 -37 -13 -27 0 -38 3 -30 9 11 6 10 10 -5 16 -21 10
-29 12 -44 14 -5 0 -7 6 -3 13 4 6 -3 4 -16 -5 -21 -15 -24 -14 -50 4 -14 11
-42 22 -61 25 -25 4 -30 2 -19 -5 8 -6 25 -11 36 -11 12 0 33 -9 48 -21 14
-11 26 -17 26 -12 0 4 5 1 10 -7 8 -12 10 -12 10 5 0 16 2 17 9 5 6 -8 7 -18
4 -24 -3 -5 -1 -6 5 -2 7 4 12 1 12 -8 0 -9 3 -15 8 -15 30 5 50 -4 61 -27 6
-15 15 -24 18 -20 4 3 14 -1 24 -10 10 -9 24 -14 31 -12 7 3 19 -1 25 -8 7 -7
24 -11 38 -8 15 3 25 0 25 -7 0 -7 3 -9 7 -6 3 4 13 1 21 -6 13 -10 14 -9 7 3
-4 8 -5 12 0 8 4 -4 15 -2 24 5 14 10 14 10 4 -4 -16 -20 -5 -33 15 -16 13 9
14 9 8 0 -4 -8 -2 -13 6 -14 7 0 23 -2 35 -3 12 -1 20 1 18 5 -3 4 2 9 10 13
24 9 17 23 -10 21 -14 -2 -23 1 -19 6 3 5 10 7 15 4 12 -8 12 2 -1 25 -8 15
-7 17 12 12 14 -3 19 -1 14 6 -4 7 -2 12 4 12 14 0 61 46 54 53 -3 3 -19 1
-36 -4 -19 -5 -36 -5 -43 1 -7 6 -16 5 -23 -2 -9 -9 -12 -9 -12 0 0 7 5 12 10
12 6 0 10 5 10 11 0 6 -9 8 -22 3 -20 -6 -21 -5 -6 10 9 9 21 16 27 16 12 0
13 2 15 41 2 23 -1 25 -15 16 -10 -6 -16 -15 -13 -19 3 -4 -2 -5 -11 -2 -12 5
-13 10 -6 17 17 17 13 31 -4 17 -13 -11 -19 -9 -35 10 -25 29 -25 33 -1 21 23
-13 45 7 32 28 -7 11 -13 10 -35 -4 -14 -9 -24 -21 -21 -25 10 -16 -40 -15
-53 0 -11 13 -12 12 -3 -6 16 -34 4 -73 -19 -59 -8 5 -6 11 5 19 15 11 15 13
1 25 -9 8 -16 20 -16 28 0 11 -3 11 -14 1 -14 -13 -11 -32 4 -23 5 3 11 1 14
-4 4 -5 2 -12 -3 -15 -5 -3 -23 11 -40 31 -17 20 -31 31 -31 24 0 -8 -5 -9
-17 -2 -24 12 -35 12 -52 -2 -12 -9 -13 -9 -7 1 7 11 3 13 -33 16 -8 1 -16 7
-19 14 -5 15 -1 15 35 0 63 -25 71 -18 13 12 -43 22 -51 31 -21 23 11 -3 50 2
88 10 68 15 108 18 98 8 -3 -2 -14 -6 -25 -8 -11 -2 -30 -5 -42 -7 -13 -2 -31
-5 -40 -5 -10 -1 -18 -5 -18 -10 0 -5 19 -7 43 -6 23 2 42 4 42 5 0 1 16 3 35
5 19 1 29 1 23 -2 -29 -11 -9 -20 46 -21 56 0 60 1 71 29 7 16 10 32 6 36 -3
3 -6 1 -6 -6 0 -8 -7 -11 -15 -7 -8 3 -18 -1 -22 -7 -6 -10 -12 -9 -25 5 -10
10 -14 18 -10 18 4 0 13 -5 19 -11 7 -7 12 -6 17 6 3 9 2 13 -3 10 -6 -3 -14
3 -20 12 -9 16 -12 16 -21 3 -8 -12 -9 -10 -7 8 2 13 10 28 18 33 11 7 12 9 0
9 -11 0 -11 3 0 17 9 11 3 9 -19 -6 -18 -12 -30 -26 -27 -31 3 -4 -2 -10 -10
-14 -8 -3 -17 0 -21 6 -4 7 -3 8 4 4 7 -4 12 -1 12 6 0 7 14 26 30 42 31 30
38 46 19 46 -5 0 -7 -5 -3 -12 4 -6 3 -8 -3 -5 -5 3 -20 -7 -31 -23 -12 -16
-32 -34 -45 -40 -17 -8 -15 -6 6 10 15 12 24 27 21 32 -5 7 -2 8 5 4 8 -6 11
-2 9 10 -2 11 2 18 9 17 7 -2 22 12 34 30 l23 32 -28 -25 c-17 -15 -26 -19
-24 -10 2 8 12 22 23 32 12 11 15 17 7 18 -10 0 -10 5 -1 21 10 19 9 20 -13
15 l-23 -7 23 17 c12 9 22 21 22 27 0 6 -13 -2 -30 -18 -28 -27 -43 -64 -20
-50 6 4 7 11 4 17 -4 7 -2 8 4 4 18 -11 2 -37 -19 -31 -12 4 -21 1 -25 -9 -3
-9 -12 -16 -19 -16 -7 0 -15 -5 -17 -12 -4 -12 -38 -21 -38 -9 0 4 9 17 20 29
11 12 20 26 20 32 0 5 5 10 11 10 6 0 8 7 5 16 -3 8 -2 12 3 9 12 -7 41 34 40
55 0 13 -1 13 -6 0 -8 -20 -73 -80 -87 -80 -6 0 -5 4 3 9 9 6 11 18 7 35 -5
21 -3 24 11 19 15 -6 16 -4 5 9 -10 13 -10 18 1 30 8 7 13 25 12 38 -1 14 2
30 7 37 6 7 4 14 -3 19 -7 4 -9 3 -6 -3 3 -5 0 -10 -7 -10 -10 0 -8 9 6 34 11
18 17 33 13 33 -4 0 -2 6 4 14 9 11 8 15 -4 20 -9 3 -14 2 -11 -3 3 -5 -2 -15
-11 -22 -15 -12 -16 -12 -11 8 3 13 2 21 -4 20 -6 -1 -13 4 -15 11 -3 7 1 10
9 7 9 -4 14 2 15 15 1 13 -3 18 -10 14 -7 -3 -4 1 5 9 16 13 15 14 -12 13 -16
-1 -32 -7 -35 -15 -3 -7 -12 -10 -20 -7 -8 3 -15 1 -15 -3 0 -5 6 -12 13 -14
7 -3 4 -6 -7 -6 -13 -1 -17 4 -13 19 3 10 0 21 -7 23 -8 3 -7 12 4 33 8 16 15
32 17 35 1 4 -3 7 -10 6 -43 -1 -49 3 -43 29 4 15 3 23 -3 20 -11 -7 -8 20 4
31 4 4 5 2 0 -6 -6 -10 -4 -12 4 -7 9 6 9 11 -1 24 -10 12 -10 14 0 8 14 -8
13 -10 18 62 2 35 0 52 -8 52 -6 0 -9 -2 -6 -6 3 -3 2 -20 -2 -39 -6 -25 -5
-33 4 -29 6 3 3 -1 -6 -9 -10 -8 -18 -22 -18 -32 0 -10 -3 -15 -7 -12 -7 8 -8
79 -1 93 2 5 1 23 -3 39 -5 21 -7 24 -9 10 -1 -11 -4 -29 -6 -40 -3 -11 -6
-25 -6 -32 -1 -7 -4 -10 -8 -8 -4 2 -6 21 -5 41 2 32 0 35 -10 21 -7 -9 -15
-14 -18 -10 -4 3 -1 13 6 21 10 13 9 14 -2 7 -11 -6 -13 -4 -8 9 16 41 19 66
7 66 -6 0 -8 -4 -5 -10 3 -5 1 -10 -5 -10 -6 0 -8 -4 -5 -10 7 -12 -25 -13
-41 -2 -7 4 -11 41 -10 100 1 50 1 92 0 92 -1 0 -4 -7 -7 -15z m-40 -125 c-1
-11 -5 -20 -9 -20 -10 0 -10 4 -2 24 8 22 13 20 11 -4z m-82 -260 c-20 -22
-35 -26 -35 -9 0 5 4 8 9 5 5 -3 14 1 21 9 7 8 15 15 18 15 3 0 -3 -9 -13 -20z
m-72 -85 c-3 -9 -8 -14 -10 -11 -3 3 -2 9 2 15 9 16 15 13 8 -4z m387 -6 c0
-5 -4 -9 -10 -9 -5 0 -10 7 -10 16 0 8 5 12 10 9 6 -3 10 -10 10 -16z m70 -64
c0 -15 -24 -53 -31 -49 -5 3 -6 -1 -3 -9 3 -8 -2 -17 -10 -20 -19 -7 -14 21 9
57 15 23 35 35 35 21z m-251 -51 c-8 -10 -8 -14 0 -14 13 0 15 -72 2 -85 -18
-20 -40 -85 -28 -82 7 1 11 -7 9 -18 -2 -20 -2 -20 9 -1 9 15 9 21 1 24 -7 2
-12 8 -12 13 0 6 9 5 21 -1 13 -7 18 -17 15 -27 -5 -13 -4 -14 9 -3 8 7 15 9
15 4 0 -4 5 -3 12 4 18 18 30 14 19 -7 -6 -10 -7 -22 -3 -26 4 -3 2 -6 -3 -4
-16 4 -65 -12 -65 -22 0 -5 8 -6 18 -2 14 5 15 3 5 -7 -7 -7 -26 -13 -42 -13
-19 0 -28 -4 -24 -11 4 -6 -1 -5 -9 2 -9 8 -14 20 -11 28 3 8 0 14 -5 14 -10
0 -9 24 3 78 3 13 10 20 16 16 7 -4 9 5 6 25 -3 17 -1 29 4 25 5 -3 9 6 9 19
0 13 3 27 7 31 4 4 8 19 9 34 2 34 2 34 14 27 8 -5 7 -11 -1 -21z m56 -2 c-3
-3 -11 0 -18 7 -9 10 -8 11 6 5 10 -3 15 -9 12 -12z m178 -42 c-31 -36 -41
-39 -21 -7 8 12 18 28 22 35 4 7 11 10 16 7 5 -3 -2 -19 -17 -35z m37 -20 c0
-5 -5 -10 -11 -10 -5 0 -7 5 -4 10 3 6 8 10 11 10 2 0 4 -4 4 -10z m-602 -55
c-3 -3 -9 2 -12 12 -6 14 -5 15 5 6 7 -7 10 -15 7 -18z m369 18 c-4 -3 0 -14
8 -23 13 -14 12 -18 -5 -33 -16 -14 -20 -14 -20 -2 0 7 5 17 10 20 8 5 8 11 1
19 -10 12 -5 26 7 26 3 0 2 -3 -1 -7z m183 -3 c0 -5 -5 -10 -11 -10 -5 0 -7 5
-4 10 3 6 8 10 11 10 2 0 4 -4 4 -10z m55 -50 c-9 -16 -18 -30 -20 -30 -6 0 6
32 18 48 17 22 18 13 2 -18z m-768 -52 c-3 -7 -5 -2 -5 12 0 14 2 19 5 13 2
-7 2 -19 0 -25z m-5 -36 c3 -11 -1 -30 -9 -43 -10 -17 -12 -18 -7 -4 4 11 6
30 5 43 -1 27 5 29 11 4z m158 -1 c-1 -20 -19 -33 -35 -24 -12 7 -14 13 -6 17
6 4 11 2 11 -4 0 -6 5 -8 10 -5 8 5 7 11 -1 21 -10 12 -9 13 5 8 9 -3 16 -9
16 -13z m266 -26 c1 -16 -3 -25 -12 -25 -16 0 -15 30 1 42 6 4 10 8 10 8 0 0
1 -11 1 -25z m-241 -42 c0 -15 -5 -28 -11 -30 -5 -2 -8 14 -6 38 5 44 20 36
17 -8z m57 0 c-3 -16 -7 -22 -10 -15 -4 13 4 42 11 42 2 0 2 -12 -1 -27z m295
1 c-3 -3 -12 -4 -19 -1 -8 3 -5 6 6 6 11 1 17 -2 13 -5z m-477 -35 c-6 -11 -8
-24 -5 -29 3 -5 0 -12 -6 -15 -5 -4 -8 -13 -5 -20 3 -9 -2 -12 -14 -10 -11 2
-22 0 -25 -6 -6 -9 8 -13 33 -10 6 1 12 -3 12 -9 0 -5 -5 -10 -11 -10 -5 0 -7
-6 -3 -12 4 -7 4 -10 -1 -6 -4 4 -15 -2 -25 -14 -13 -17 -17 -18 -17 -5 0 9 4
14 9 11 4 -3 8 -3 8 0 0 2 3 13 7 23 6 16 5 16 -10 4 -14 -11 -17 -11 -18 0 0
8 -2 25 -5 38 -3 18 -1 21 8 13 14 -11 53 9 41 21 -3 4 -1 13 5 20 7 8 9 17 5
20 -3 4 -1 7 6 7 7 0 9 5 5 12 -4 7 -3 8 4 4 9 -5 9 -13 2 -27z m510 12 c0 -4
-6 -8 -14 -8 -8 0 -12 6 -9 14 5 13 23 9 23 -6z m-457 -36 c-7 -21 -12 -19
-10 4 0 11 5 18 9 15 4 -3 5 -11 1 -19z m-27 -14 c0 -16 -4 -27 -7 -25 -4 2
-6 12 -4 22 2 9 4 20 4 25 1 4 3 7 5 7 2 0 3 -13 2 -29z m552 7 c-2 -7 3 -12
10 -10 8 1 11 -2 8 -7 -4 -5 2 -14 11 -20 16 -9 16 -10 -4 -8 -12 0 -19 5 -16
10 3 5 -3 7 -13 3 -11 -3 -34 -7 -51 -8 -18 -1 -33 -5 -33 -9 0 -14 -29 -17
-40 -4 -10 12 -8 13 9 10 19 -4 25 3 19 23 -2 4 -7 6 -11 4 -5 -1 -6 2 -2 8
10 16 23 12 30 -10 4 -11 11 -17 17 -14 7 4 6 9 -2 14 -17 10 2 20 28 15 12
-2 24 0 27 6 9 13 15 11 13 -3z m-310 -66 c-10 -2 -18 -8 -18 -13 0 -6 5 -7
12 -3 7 4 8 3 4 -4 -4 -7 -2 -12 4 -12 6 0 9 -4 6 -9 -4 -5 0 -11 6 -14 10 -3
10 -8 -2 -21 -13 -17 -20 -35 -22 -63 -1 -7 -4 -10 -8 -8 -4 2 -12 -7 -19 -21
l-11 -26 27 20 c27 18 28 18 46 0 17 -17 17 -19 1 -16 -9 2 -19 -2 -21 -7 -2
-6 6 -11 17 -11 11 0 21 4 21 8 1 4 3 13 4 18 1 6 3 15 4 20 0 6 8 10 16 10 9
0 18 6 21 14 4 10 16 12 42 9 20 -2 44 -5 53 -6 8 -1 16 -10 17 -22 1 -16 -1
-17 -8 -5 -5 8 -10 11 -10 7 0 -5 -6 -5 -12 0 -18 11 -32 10 -40 -2 -5 -6 -8
-5 -8 4 0 11 -4 10 -19 -3 -11 -10 -25 -15 -32 -10 -9 5 -10 2 -6 -9 3 -10 2
-17 -3 -17 -6 0 -10 -5 -10 -11 0 -5 4 -8 9 -4 5 3 12 1 16 -4 3 -6 -3 -8 -14
-6 -11 2 -36 -5 -55 -15 -20 -10 -33 -13 -29 -6 3 6 0 6 -8 -1 -19 -19 -28
-16 -26 7 1 12 7 18 14 16 7 -3 13 -1 13 5 0 6 5 7 10 4 6 -3 10 -4 10 -1 0 2
3 12 7 21 6 16 5 16 -20 1 -24 -17 -26 -16 -36 3 -9 17 -7 24 16 46 28 25 28
25 5 25 -13 0 -20 -4 -17 -10 3 -5 0 -10 -8 -10 -9 0 -13 -10 -12 -30 1 -20
-3 -30 -12 -30 -11 0 -11 4 -3 20 6 11 9 24 6 29 -3 5 3 16 14 26 10 9 16 24
14 33 -5 14 -4 14 6 -1 6 -9 16 -15 21 -11 6 3 5 12 -3 22 -11 13 -11 14 0 8
13 -8 13 9 2 59 -4 19 0 23 23 17 18 -5 19 -7 5 -10z m167 -2 c-3 -5 -12 -10
-18 -10 -7 0 -6 4 3 10 19 12 23 12 15 0z m-118 -36 c-3 -3 -12 -4 -19 -1 -8
3 -5 6 6 6 11 1 17 -2 13 -5z m343 -35 c0 -4 -7 -6 -15 -3 -8 4 -15 10 -15 15
0 4 7 6 15 3 8 -4 15 -10 15 -15z m-331 -53 c-8 -8 -60 -15 -55 -8 2 4 17 9
32 10 15 1 25 0 23 -2z m225 -14 c2 -4 -4 -8 -14 -8 -10 0 -16 4 -14 8 3 4 9
8 14 8 5 0 11 -4 14 -8z m-54 -22 c0 -5 -4 -10 -10 -10 -5 0 -10 5 -10 10 0 6
5 10 10 10 6 0 10 -4 10 -10z m47 -8 c11 8 12 7 7 -6 -8 -21 -18 -20 -35 2
-11 14 -11 15 1 5 10 -9 17 -10 27 -1z m293 -46 c0 -3 -4 -8 -10 -11 -5 -3
-10 -1 -10 4 0 6 5 11 10 11 6 0 10 -2 10 -4z m56 -28 c10 -16 14 -59 4 -53
-5 3 -10 1 -12 -4 -1 -5 -12 -3 -23 6 -19 15 -19 15 4 8 18 -5 22 -4 16 5 -5
9 -4 11 3 6 14 -8 15 -5 6 19 -5 12 -9 13 -14 5 -4 -7 -13 -9 -20 -5 -9 6 -9
9 1 16 19 12 27 11 35 -3z m84 -118 c12 -8 10 -9 -7 -7 -12 2 -26 6 -29 10
-11 11 19 8 36 -3z m-172 -14 c15 3 24 4 22 2 -3 -2 -18 -14 -35 -28 -16 -14
-24 -18 -17 -9 15 20 5 31 -18 19 -17 -9 -30 -4 -30 11 0 4 9 5 20 2 13 -3 20
0 21 8 0 9 2 10 5 2 3 -6 17 -9 32 -7z m-118 -16 c0 -5 -2 -10 -4 -10 -3 0 -8
5 -11 10 -3 6 -1 10 4 10 6 0 11 -4 11 -10z m195 0 c3 -6 -1 -7 -9 -4 -18 7
-21 14 -7 14 6 0 13 -4 16 -10z m-161 -15 c3 -8 1 -15 -3 -15 -5 0 -11 7 -15
15 -3 8 -1 15 3 15 5 0 11 -7 15 -15z m221 -15 c3 -5 1 -10 -4 -10 -6 0 -11 5
-11 10 0 6 2 10 4 10 3 0 8 -4 11 -10z"/>
<path d="M2455 2849 c-4 -6 -5 -12 -2 -15 2 -3 7 2 10 11 7 17 1 20 -8 4z"/>
<path d="M2381 3634 c0 -11 3 -14 6 -6 3 7 2 16 -1 19 -3 4 -6 -2 -5 -13z"/>
<path d="M2489 3568 c-7 -25 -5 -38 8 -38 12 0 13 3 4 13 -6 8 -8 17 -4 20 3
4 3 7 0 7 -4 0 -7 -1 -8 -2z"/>
<path d="M2490 3509 c0 -5 5 -7 10 -4 6 3 10 8 10 11 0 2 -4 4 -10 4 -5 0 -10
-5 -10 -11z"/>
<path d="M2563 3475 c0 -8 4 -12 9 -9 5 3 6 10 3 15 -9 13 -12 11 -12 -6z"/>
<path d="M2727 3293 c4 -9 2 -14 -3 -10 -6 3 -16 1 -24 -5 -12 -8 -11 -9 3 -4
12 4 17 2 15 -6 -3 -7 -11 -13 -18 -13 -7 0 -14 -9 -15 -20 -1 -11 -6 -32 -9
-46 -5 -16 -3 -30 3 -33 7 -5 11 2 11 15 0 12 13 46 30 75 23 41 26 53 15 58
-10 3 -12 0 -8 -11z"/>
<path d="M2664 3292 c-6 -4 -14 -18 -18 -32 -6 -20 -5 -22 4 -10 15 20 31 50
28 50 -2 0 -8 -4 -14 -8z"/>
<path d="M2757 3263 c-4 -3 -7 -11 -7 -17 0 -6 5 -5 12 2 6 6 9 14 7 17 -3 3
-9 2 -12 -2z"/>
<path d="M2733 3200 c-11 -30 -5 -45 12 -32 11 7 15 62 5 62 -3 0 -11 -13 -17
-30z"/>
<path d="M1946 3153 c9 -38 14 -42 14 -10 0 14 -5 29 -10 32 -7 4 -8 -3 -4
-22z"/>
<path d="M727 3153 c9 -36 28 -46 29 -15 1 15 -1 21 -3 14 -4 -10 -9 -8 -19 5
-12 17 -13 16 -7 -4z"/>
<path d="M663 3149 c-9 -9 -8 -15 3 -26 15 -16 20 -48 5 -39 -5 4 -8 -2 -7
-11 2 -10 -2 -22 -8 -26 -7 -6 -5 -7 6 -4 19 7 33 -19 16 -29 -7 -4 -8 -3 -4
4 4 7 1 12 -8 12 -17 0 -31 -16 -18 -22 4 -1 18 -20 31 -40 12 -21 26 -38 30
-38 4 0 8 -7 8 -15 0 -10 -4 -12 -12 -5 -7 5 -16 6 -20 2 -5 -4 -5 -1 -1 6 4
7 1 12 -8 12 -9 0 -16 5 -16 10 0 6 -7 10 -16 10 -12 0 -8 -9 15 -36 17 -19
29 -40 25 -45 -3 -6 2 -17 12 -26 14 -11 11 -11 -9 2 -39 23 -40 16 -4 -20 17
-16 27 -24 22 -16 -5 10 -4 12 3 7 7 -4 12 -11 12 -17 0 -16 -23 -10 -47 13
-13 12 -23 16 -23 10 0 -7 5 -12 10 -12 6 0 10 -5 10 -11 0 -5 -4 -7 -10 -4
-6 3 -7 -1 -4 -9 3 -9 10 -16 16 -16 5 0 6 5 2 12 -5 7 -3 8 5 4 7 -5 10 -11
6 -14 -3 -3 9 -21 27 -39 25 -25 28 -32 13 -27 -11 4 -26 12 -33 17 -7 5 -15
8 -17 5 -3 -3 6 -11 20 -18 14 -7 25 -17 25 -22 0 -5 6 -6 13 -2 6 4 9 4 5 -1
-4 -4 -2 -17 4 -28 9 -17 8 -19 -8 -12 -42 17 -57 16 -24 -2 19 -10 33 -22 32
-27 -2 -5 2 -12 9 -17 28 -17 2 -15 -36 3 l-40 19 34 -7 c20 -4 31 -2 28 3 -6
9 -29 10 -75 5 -21 -3 8 -27 35 -29 24 -2 73 -31 73 -43 0 -7 -42 -1 -122 19
-46 11 -48 7 -8 -14 17 -9 30 -21 30 -27 0 -6 -8 -4 -18 5 -21 20 -32 22 -32
6 0 -5 4 -8 8 -5 4 2 13 -4 20 -14 10 -17 9 -18 -6 -14 -14 5 -15 4 -2 -5 8
-6 23 -11 33 -11 12 0 16 -4 11 -12 -4 -7 -3 -10 1 -5 5 4 18 1 30 -7 11 -7
30 -16 40 -18 19 -4 18 -5 -4 -17 -14 -8 -21 -9 -17 -2 6 9 -18 17 -26 9 -2
-2 -18 7 -35 20 -18 13 -33 22 -33 19 0 -11 48 -56 67 -61 11 -4 24 -13 27
-21 3 -10 0 -12 -12 -9 -20 5 53 -31 83 -42 11 -4 24 -6 30 -5 5 2 7 -1 3 -5
-4 -4 -3 -13 4 -21 9 -11 8 -13 -2 -11 -8 2 -16 -5 -18 -16 -2 -11 0 -16 7
-12 12 8 51 -10 51 -23 0 -4 -11 -14 -25 -21 -14 -7 -25 -19 -25 -26 0 -7 -14
-21 -30 -31 -17 -9 -30 -20 -30 -24 0 -4 -10 -9 -22 -12 -12 -4 -19 -9 -15
-13 4 -4 26 5 49 20 l43 27 -50 -45 -49 -44 57 13 c33 8 57 9 57 4 0 -6 9 -5
21 1 11 7 23 9 26 7 2 -3 -5 -10 -16 -17 -12 -6 -19 -15 -16 -20 3 -4 -11 -24
-31 -44 -20 -20 -34 -36 -32 -37 1 0 22 -1 45 -3 50 -2 65 -13 30 -21 -15 -4
-30 -19 -39 -38 -8 -18 -13 -27 -12 -20 4 17 -23 5 -30 -13 -4 -10 4 -18 22
-26 15 -6 22 -12 15 -15 -15 -6 -17 -33 -3 -33 6 0 10 6 10 13 0 8 4 7 10 -3
5 -8 10 -10 10 -4 0 7 8 14 18 16 11 3 19 0 19 -8 0 -7 -4 -11 -8 -8 -4 2 -10
0 -13 -5 -9 -15 16 -7 54 17 38 24 55 28 45 12 -3 -6 -11 -10 -16 -10 -17 0
-41 -29 -34 -40 4 -6 1 -9 -7 -8 -7 2 -12 -3 -11 -9 2 -7 0 -12 -5 -10 -4 1
-8 -2 -10 -8 -2 -5 -13 -25 -24 -44 l-22 -34 25 6 c13 4 34 10 46 13 16 5 21
2 19 -11 -1 -9 -9 -21 -17 -26 -8 -5 -10 -9 -5 -9 5 0 3 -6 -3 -13 -8 -11 -7
-14 7 -14 9 0 19 3 22 7 3 4 17 10 33 14 21 5 27 3 27 -9 0 -14 -30 -117 -47
-165 -3 -8 -7 -37 -9 -64 -1 -27 -9 -53 -16 -57 -10 -7 -10 -9 2 -9 9 0 11 -3
5 -8 -18 -13 -17 -42 1 -42 16 0 16 -1 0 -19 -17 -19 -17 -19 5 -14 20 6 21 5
8 -9 -7 -9 -17 -14 -21 -11 -5 2 -8 -1 -8 -8 0 -6 8 -9 19 -6 27 7 23 -28 -7
-71 l-23 -32 26 10 c24 9 25 8 15 -10 -6 -12 -7 -20 -1 -20 10 0 9 -19 -2 -36
-8 -14 1 -24 22 -23 12 0 11 3 -4 9 -20 8 -20 9 1 9 11 1 29 8 40 16 10 8 22
15 27 15 9 0 5 -60 -5 -66 -8 -5 -2 -44 8 -53 4 -3 4 2 1 11 -4 10 -2 18 3 18
6 0 10 -16 10 -36 0 -19 5 -45 11 -56 8 -15 8 -19 0 -14 -6 4 -12 0 -12 -8 -2
-28 -6 -56 -9 -58 -1 -2 -3 -18 -5 -36 -3 -28 -1 -31 11 -21 12 10 13 9 8 -6
-6 -14 -4 -16 6 -10 9 5 11 4 6 -4 -4 -6 -12 -8 -18 -5 -8 5 -9 1 -5 -10 4
-10 7 -25 7 -33 0 -13 3 -13 15 -3 8 7 15 19 15 27 0 8 4 12 9 8 5 -3 17 5 26
17 9 13 15 16 14 8 -3 -15 23 -92 48 -139 13 -27 8 -45 -9 -35 -7 4 -8 2 -4
-5 4 -6 11 -9 15 -7 10 6 8 -25 -3 -42 -7 -11 -1 -16 16 -13 4 0 5 -7 2 -17
-5 -16 -5 -16 9 1 16 19 37 23 37 7 0 -21 -2 -25 -13 -22 -6 2 -5 -4 3 -12 13
-17 25 -22 16 -7 -3 5 1 12 10 15 11 4 15 2 11 -8 -3 -8 -3 -17 1 -20 3 -4 5
-26 4 -49 -2 -34 0 -39 8 -24 6 9 15 15 21 12 5 -4 9 1 9 10 0 9 4 14 9 11 5
-3 7 -14 4 -25 -3 -11 2 -21 12 -25 9 -3 14 -2 11 2 -3 4 4 13 15 20 16 11 19
9 19 -9 0 -15 5 -19 19 -14 15 4 19 0 19 -20 0 -14 -6 -25 -12 -25 -6 0 -5 -4
3 -9 8 -5 26 -4 46 5 29 12 35 11 47 -3 9 -12 9 -15 1 -9 -7 4 -13 5 -13 1 0
-3 11 -10 25 -15 15 -6 25 -17 25 -30 0 -23 8 -25 33 -6 14 11 15 15 5 19 -11
4 -11 6 0 6 7 1 10 6 7 11 -10 17 7 11 22 -8 8 -9 12 -12 9 -7 -2 6 4 11 15
11 11 0 40 -22 65 -48 24 -26 44 -43 44 -38 0 5 -4 12 -10 15 -5 3 -10 20 -10
37 0 29 1 30 17 16 25 -21 46 -13 33 13 -9 16 -7 19 10 19 11 0 20 -5 20 -11
0 -5 5 -7 10 -4 8 5 7 11 -1 21 -6 8 -8 14 -3 14 22 -1 35 -20 40 -56 7 -53
16 -59 39 -24 22 33 35 38 35 15 0 -22 28 -7 45 24 10 18 14 21 15 9 0 -11 5
-15 15 -12 8 4 12 10 9 15 -3 5 -1 9 4 9 12 0 24 -29 16 -41 -3 -5 2 -9 10 -9
8 0 20 8 25 18 9 15 12 15 21 2 5 -8 7 -21 4 -29 -3 -10 2 -9 16 4 11 10 20
24 20 30 0 7 6 17 13 23 10 9 13 2 14 -30 1 -22 4 -43 7 -46 7 -7 46 37 46 52
0 6 7 2 16 -9 14 -19 15 -19 39 10 13 17 24 25 25 19 0 -6 7 -11 15 -11 9 0
14 6 11 14 -3 7 -1 13 4 13 6 0 10 -7 10 -15 0 -8 5 -15 11 -15 5 0 7 -4 4
-10 -3 -5 -2 -10 4 -10 5 0 14 8 20 17 12 22 23 13 25 -21 1 -23 2 -23 17 -7
9 9 19 29 23 44 6 24 26 39 26 19 0 -14 25 -10 39 6 12 12 11 13 -10 7 -22 -7
-22 -7 -5 11 18 17 19 17 32 0 7 -10 17 -15 23 -11 6 3 11 -1 11 -9 0 -9 4
-16 9 -16 5 0 9 12 8 26 0 15 8 31 16 36 9 5 14 15 11 23 -4 9 1 18 12 22 41
15 46 38 30 133 -5 31 -5 33 8 17 8 -10 12 -26 9 -36 -2 -10 2 -21 9 -24 10
-3 13 3 12 24 -2 29 16 53 24 31 6 -20 29 -13 35 11 6 21 6 21 -8 3 -14 -18
-15 -18 -15 -2 0 12 -5 16 -18 12 -15 -5 -18 0 -18 32 0 21 -3 43 -7 49 -4 6
-2 15 4 19 7 4 9 3 6 -3 -8 -13 17 -36 27 -25 4 4 14 -2 22 -12 8 -11 14 -18
15 -15 0 2 2 14 5 27 3 17 0 21 -8 16 -7 -4 -10 -4 -6 1 4 4 3 14 -2 20 -8 9
-6 14 4 18 9 4 18 2 21 -3 9 -14 25 -12 21 2 -1 7 -1 10 1 5 3 -4 10 -4 15 -1
7 4 8 2 4 -4 -4 -7 -4 -12 1 -12 4 0 17 -13 28 -28 14 -20 15 -23 3 -14 -15
12 -16 11 -5 -18 6 -17 13 -25 15 -18 2 7 6 20 9 28 4 8 5 20 4 27 -1 6 3 14
9 18 5 3 8 0 5 -7 -3 -7 4 -19 15 -25 17 -11 19 -10 14 5 -5 16 -5 16 8 0 14
-17 41 -19 55 -4 4 4 3 7 -2 6 -22 -5 -36 1 -29 12 4 6 3 8 -3 5 -6 -4 -19 0
-29 8 -18 15 -18 15 1 9 l20 -6 -20 13 c-11 8 -22 14 -25 14 -3 0 -11 4 -18 8
-16 11 -6 28 13 20 18 -6 19 1 5 27 -8 15 -6 21 7 30 15 9 14 10 -6 4 -16 -4
-21 -3 -17 5 4 6 1 11 -6 11 -8 0 -14 11 -14 25 0 17 3 22 10 15 13 -13 39
-13 31 0 -3 5 7 5 25 -2 17 -5 34 -8 37 -4 4 3 0 6 -8 6 -17 0 -36 38 -31 62
3 15 7 13 26 -10 12 -15 25 -35 29 -44 8 -22 33 -23 41 -2 3 9 11 12 18 8 7
-4 2 5 -11 20 -28 30 -43 79 -16 52 8 -8 15 -20 15 -26 0 -7 7 -9 16 -6 9 3
20 6 25 6 5 0 9 8 9 18 0 13 -2 14 -9 3 -9 -14 -13 -11 -37 34 -12 24 -8 45 9
41 7 -1 9 -1 4 1 -4 3 -5 9 -2 13 3 5 0 12 -6 16 -7 4 -9 3 -5 -4 3 -6 1 -14
-5 -18 -13 -8 -41 24 -33 37 2 4 -9 18 -26 30 -38 29 -38 37 0 31 16 -2 28 -7
25 -11 -2 -4 1 -8 8 -8 24 -1 42 -8 53 -22 8 -10 13 -11 18 -3 4 7 1 12 -6 13
-7 0 -4 4 7 8 25 10 38 4 31 -16 -4 -8 -2 -11 5 -7 6 4 15 0 21 -7 7 -11 8
-10 6 5 -2 10 3 21 11 24 8 2 11 0 8 -5 -7 -11 39 -11 47 0 3 4 3 5 -1 2 -3
-3 -17 2 -30 10 -13 9 -28 13 -33 10 -6 -4 -7 1 -3 12 6 16 5 17 -12 3 -15
-12 -17 -12 -10 -1 6 11 4 13 -9 8 -11 -5 -15 -3 -10 5 5 7 2 9 -9 5 -9 -3
-18 0 -21 9 -3 9 -9 13 -14 10 -4 -2 -9 7 -10 22 -1 15 -10 34 -20 42 -10 9
-16 22 -14 29 3 9 0 11 -8 6 -9 -5 -11 -4 -6 4 9 14 26 5 26 -14 0 -8 5 -17
10 -20 6 -4 9 -1 8 7 -2 8 4 12 15 10 9 -2 17 2 17 8 0 6 5 8 10 5 6 -4 7 -12
3 -18 -4 -7 0 -6 10 2 18 14 23 26 8 16 -5 -3 -12 -1 -16 5 -4 6 -11 7 -17 4
-7 -5 -8 -2 -3 7 5 8 -1 6 -12 -4 -18 -16 -21 -16 -27 -2 -3 9 -2 13 3 10 5
-3 12 -1 16 5 3 5 -1 10 -9 10 -9 0 -16 7 -16 15 0 18 -12 19 -28 3 -21 -21
-42 -17 -48 8 -3 13 -11 21 -17 17 -6 -3 -7 -1 -3 5 11 19 22 14 35 -14 9 -21
14 -24 26 -14 8 7 15 17 15 21 0 8 -42 31 -62 33 -16 2 -19 16 -5 21 14 6 41
-12 93 -61 13 -12 25 -20 28 -18 3 2 4 1 1 -3 -7 -9 33 -35 44 -28 6 3 14 -3
20 -12 6 -10 11 -13 11 -7 0 6 -3 14 -7 18 -5 4 -8 11 -8 15 0 4 -15 21 -34
37 -43 38 -49 74 -13 68 13 -3 31 -11 39 -19 8 -8 18 -15 23 -15 4 0 22 -13
40 -30 30 -28 40 -35 40 -26 0 10 -62 66 -74 66 -7 0 -19 7 -26 15 -10 12 -9
16 3 21 19 7 40 -4 31 -17 -3 -5 -2 -9 3 -8 21 4 43 -2 43 -12 0 -5 -5 -7 -12
-3 -7 4 -8 3 -4 -5 4 -6 11 -9 15 -7 9 6 51 -30 51 -43 0 -5 9 -11 20 -14 26
-7 26 7 0 33 -11 11 -20 23 -20 26 0 15 -62 64 -72 58 -7 -4 -8 -3 -4 4 4 6
14 8 23 5 11 -4 14 -3 9 6 -4 6 -16 11 -26 9 -11 -2 -26 6 -35 17 -14 17 -16
17 -11 2 5 -17 5 -17 -18 0 -16 12 -20 20 -12 25 6 4 12 3 14 -2 2 -5 10 -6
18 -3 8 3 14 0 14 -6 0 -6 8 -8 18 -4 15 6 16 5 2 -13 -14 -18 -14 -18 6 -2
11 10 27 18 34 18 7 0 10 3 6 7 -7 8 -11 9 -38 12 -9 1 -8 4 2 11 13 9 13 10
0 10 -8 0 -28 11 -44 25 -16 14 -26 25 -23 25 12 0 57 -23 57 -30 0 -4 6 -7
13 -8 6 0 24 -3 40 -6 16 -4 27 -2 27 4 0 6 -4 9 -8 6 -10 -6 -38 11 -31 19 4
3 18 1 32 -4 16 -6 29 -7 32 -1 3 5 12 7 19 4 8 -3 17 -1 20 4 8 13 -81 48
-133 51 -34 2 -42 0 -35 -11 4 -7 -4 -4 -17 8 -37 31 -80 56 -87 50 -3 -4 3
-13 14 -22 18 -14 18 -15 -4 -4 -14 7 -21 17 -18 26 5 13 -26 55 -39 53 -12
-1 -30 9 -25 14 3 3 23 -3 45 -13 22 -10 43 -16 47 -14 5 3 8 1 8 -5 0 -5 9
-9 20 -8 20 1 20 2 -2 18 -12 10 -25 17 -28 17 -30 -2 -50 4 -44 14 5 7 2 9
-9 5 -8 -3 -18 0 -21 8 -3 8 -14 12 -27 10 -15 -3 -27 3 -36 15 -8 11 -19 17
-25 14 -6 -4 -8 -2 -4 4 3 6 -4 18 -16 26 -12 9 -19 19 -15 23 4 3 13 -1 20
-10 11 -16 13 -16 29 2 16 19 16 20 -5 27 -12 4 -25 11 -28 16 -4 6 -12 4 -20
-5 -14 -14 -49 -12 -49 4 0 5 -5 9 -10 9 -6 0 -5 -8 2 -19 7 -11 14 -19 17
-19 22 2 31 -5 31 -21 0 -29 38 -89 61 -96 10 -4 19 -11 19 -16 0 -5 8 -9 18
-9 10 0 28 -9 39 -19 12 -11 24 -17 28 -13 5 4 5 -3 2 -16 -4 -16 0 -25 11
-29 9 -4 21 -13 25 -20 5 -7 12 -11 17 -8 5 3 11 1 14 -4 8 -12 -11 -8 -46 9
-26 12 -33 22 -29 43 1 5 -3 6 -9 2 -6 -4 -18 -1 -27 7 -12 9 -15 9 -9 1 4 -7
3 -13 -2 -13 -5 0 -17 15 -26 33 -8 17 -16 28 -16 22 0 -5 -11 4 -24 20 -20
24 -27 28 -37 18 -9 -9 -9 -13 -2 -13 6 0 14 -14 18 -30 4 -17 16 -35 27 -41
14 -8 17 -14 10 -21 -8 -8 -8 -17 -1 -30 7 -13 7 -18 -2 -16 -6 2 -14 -3 -16
-10 -3 -8 1 -10 13 -5 10 3 15 2 12 -3 -9 -13 19 -47 31 -39 6 3 9 0 5 -8 -3
-9 7 -23 25 -37 17 -12 28 -26 25 -32 -4 -7 -9 -6 -14 2 -5 8 -17 10 -30 7
-12 -3 -28 -3 -36 0 -17 6 -19 24 -1 19 6 -1 9 -1 5 1 -4 3 -9 3 -10 2 -2 -2
-13 6 -25 16 -24 21 -31 41 -10 29 9 -5 9 -3 -1 7 -11 12 -14 12 -23 -1 -7
-11 -8 -9 -5 10 5 33 -26 72 -51 64 -15 -5 -15 -4 -3 5 21 15 27 14 49 -10 22
-24 54 -20 45 6 -3 8 -10 13 -14 10 -5 -3 -12 0 -16 6 -4 8 -3 9 4 5 7 -4 12
-2 12 3 0 6 -8 11 -17 11 -14 0 -15 2 -5 9 11 7 10 9 -3 15 -9 3 -14 10 -10
16 8 14 -13 50 -29 50 -15 0 -39 57 -30 71 3 5 16 -1 29 -13 24 -23 24 -43 -2
-34 -8 3 -11 2 -8 -3 3 -6 14 -9 25 -8 10 1 16 5 13 11 -4 5 2 7 13 2 12 -4 7
4 -13 22 -18 16 -30 32 -26 36 3 3 -1 6 -10 6 -9 0 -19 -5 -22 -10 -3 -5 -11
-10 -16 -10 -6 0 -8 4 -5 8 3 5 -6 21 -20 37 -13 15 -24 31 -24 35 0 4 -24 31
-54 60 -30 30 -53 57 -50 62 3 5 10 6 15 3 5 -4 17 -1 26 5 17 11 17 11 -1 6
-21 -7 -49 11 -40 26 4 6 -4 5 -16 -2 -17 -9 -25 -9 -34 1 -8 9 -7 11 6 6 10
-3 19 0 22 9 3 9 11 12 16 9 6 -4 18 -1 26 6 12 10 15 10 12 -2 -2 -8 4 -13
15 -13 9 1 17 -2 17 -6 0 -4 10 -10 22 -13 20 -6 20 -4 -5 17 -15 13 -27 27
-27 31 0 4 6 2 13 -4 8 -6 18 -7 22 -3 5 4 5 2 2 -4 -4 -7 0 -15 9 -18 24 -9
28 -7 15 7 -11 14 -5 27 13 27 6 0 5 -4 -2 -9 -11 -7 -11 -9 2 -14 9 -4 16 -2
16 3 0 5 8 7 18 4 9 -3 6 2 -8 10 -14 8 -38 16 -55 17 -30 1 -30 1 -5 10 18 6
9 7 -32 5 -32 -2 -55 1 -52 5 3 5 -2 9 -10 9 -9 0 -16 4 -16 9 0 5 -3 16 -6
25 -5 12 2 14 41 11 46 -3 57 6 12 11 -12 1 -23 3 -24 4 -6 5 -25 8 -63 9 -22
0 -39 4 -39 9 3 20 -2 32 -16 32 -8 0 -15 -4 -15 -10 0 -5 5 -10 10 -10 6 0
10 -4 10 -10 0 -12 -71 -10 -88 3 -10 8 -9 14 5 29 14 15 14 19 3 16 -21 -4
-30 -20 -24 -40 3 -10 1 -18 -5 -18 -6 0 -11 5 -11 10 0 12 -22 9 -33 -5 -5
-6 -7 -4 -4 5 2 8 9 16 15 16 22 3 23 4 10 18 -11 12 -14 12 -21 0 -4 -8 -13
-14 -18 -14 -6 0 -8 4 -4 9 3 5 1 12 -3 15 -5 3 -9 -7 -8 -22 0 -19 -4 -26
-14 -24 -10 1 -8 -3 5 -13 11 -9 19 -18 18 -20 -2 -3 -3 -11 -2 -17 1 -7 5 -2
9 12 6 19 8 21 9 6 1 -19 1 -19 23 0 18 15 20 16 9 2 -7 -10 -11 -25 -7 -33 6
-16 -28 -22 -38 -6 -4 5 -22 5 -43 1 l-38 -9 30 24 c16 13 26 28 22 32 -5 4
-12 1 -17 -7 -6 -8 -10 -10 -10 -5 0 6 7 21 16 33 15 22 11 47 -7 36 -5 -3 -7
-9 -4 -14 3 -5 -4 -11 -15 -15 -11 -3 -21 -12 -22 -18 -2 -13 -5 -49 -7 -81
-1 -20 -1 -20 -15 0 -11 14 -14 15 -14 4 2 -31 -2 -50 -11 -50 -4 0 -7 11 -5
25 1 14 -4 32 -13 40 -8 8 -11 15 -6 15 5 0 10 14 11 32 3 33 -7 34 -12 2 -2
-10 -9 -20 -17 -22 -8 -2 -10 0 -4 5 14 11 19 47 6 38 -6 -3 -11 -1 -11 5 0 6
-4 8 -10 5 -16 -10 -12 21 5 35 8 6 18 9 23 6 6 -3 12 5 14 19 3 15 1 22 -5
18 -6 -4 -8 0 -4 10 5 14 2 14 -26 2 -17 -7 -33 -17 -35 -23 -4 -12 -42 -3
-42 10 0 13 -48 1 -66 -17 -8 -7 -14 -19 -14 -25 0 -6 -4 -9 -9 -6 -5 3 -12
-5 -15 -18 -7 -28 -53 -86 -67 -86 -6 0 1 11 15 25 32 32 87 138 58 112 -10
-9 -25 -17 -32 -17 -8 0 1 11 20 25 19 14 28 25 21 25 -7 0 -9 5 -6 10 4 6 -6
10 -22 9 -15 0 -22 -3 -15 -6 6 -2 9 -9 6 -14 -3 -6 -11 -5 -20 2 -8 6 -17 9
-21 5 -3 -3 -1 -6 5 -6 15 0 16 -26 2 -35 -6 -4 -7 1 -3 11 4 12 3 15 -5 10
-16 -9 -15 -33 1 -39 9 -4 9 -6 -1 -6 -7 -1 -10 -5 -7 -11 3 -5 2 -10 -4 -10
-6 0 -8 -6 -5 -14 3 -8 1 -17 -5 -21 -7 -4 -11 7 -11 30 0 20 -3 34 -8 32 -4
-3 -8 11 -9 31 -1 29 0 33 8 19 6 -9 7 -23 3 -30 -5 -8 -4 -9 4 -2 15 14 -8
85 -28 85 -12 0 -12 2 -2 9 11 7 10 10 -3 15 -24 9 -24 9 -16 -21 10 -34 5
-140 -7 -173 -7 -18 -9 -8 -10 46 -1 38 -2 77 -3 87 0 9 -4 17 -7 17 -4 0 -7
16 -7 35 1 19 0 33 -3 31 -2 -3 -10 1 -17 7 -11 10 -10 16 3 32 16 19 16 19
-2 5 -18 -14 -18 -13 -12 10 5 17 4 21 -2 11 -11 -16 -36 -4 -39 19 -1 8 -4
25 -7 38 -3 12 0 22 5 22 5 0 3 12 -5 28 -8 15 -12 39 -10 52 5 28 -10 59 -23
47 -4 -5 -2 -12 5 -16 15 -9 13 -29 -5 -48 -14 -16 -5 -55 11 -46 6 4 5 -1 -2
-10 -10 -11 -12 -33 -8 -69 3 -29 5 -57 6 -62 0 -5 7 -3 15 4 9 7 15 8 15 2 0
-5 -6 -12 -14 -15 -8 -3 -16 -18 -18 -33 -2 -15 -10 -29 -18 -31 -12 -4 -12
-3 -2 5 17 12 17 23 2 32 -16 10 -3 33 13 24 8 -5 9 -4 2 4 -5 6 -23 8 -38 5
-27 -5 -27 -6 -11 -24 11 -12 13 -19 5 -19 -7 0 -10 -4 -6 -9 3 -5 2 -12 -3
-15 -4 -2 -9 7 -10 21 -2 31 -11 45 -23 37 -5 -3 -7 -10 -4 -15 11 -16 0 -10
-18 12 -18 20 -17 20 12 16 16 -3 31 -1 33 4 2 6 13 11 25 11 20 2 21 7 18 73
-3 68 -28 141 -45 130 -6 -4 -21 29 -24 57 -1 3 -4 9 -8 13 -4 4 -7 -11 -6
-34 0 -23 5 -41 12 -41 6 0 5 -4 -3 -9 -11 -7 -9 -12 10 -22 13 -7 25 -11 27
-10 2 2 7 -1 10 -5 4 -4 1 -4 -5 0 -7 4 -13 2 -13 -3 0 -6 4 -11 8 -11 5 0 14
-11 20 -25 7 -15 8 -25 2 -25 -6 0 -10 6 -10 14 0 7 -18 30 -39 49 -22 19 -36
39 -33 43 4 4 1 4 -5 0 -7 -4 -22 -2 -33 4 -21 11 -27 1 -9 -17 7 -7 5 -12
-10 -16 -14 -3 -18 -1 -14 9 3 8 -2 17 -11 20 -9 3 -14 10 -11 14 3 5 1 11 -5
15 -5 3 -10 1 -10 -5 0 -6 -5 -8 -10 -5 -6 4 -8 10 -6 14 3 3 -9 22 -25 40
-16 19 -29 27 -29 20 0 -11 -2 -11 -9 -1 -4 7 -14 12 -21 10 -7 -2 -15 3 -18
11 -3 8 0 11 7 7 6 -4 11 -5 11 -1 0 12 -33 55 -42 55 -5 0 -2 -7 6 -16 20
-20 21 -38 0 -30 -8 3 -12 2 -9 -4 3 -6 1 -10 -4 -10 -6 0 -11 3 -11 8 -1 16
-69 82 -75 72 -3 -5 -3 -16 1 -22 4 -7 -7 2 -25 21 -17 19 -31 30 -31 25 -1
-5 -9 0 -18 12 -12 14 -24 19 -37 14 -11 -4 -41 4 -77 22 -58 28 -76 45 -38
35 29 -8 25 6 -17 52 -21 22 -51 55 -66 72 -20 23 -31 29 -36 21 -16 -25 -64
-2 -109 52 -15 19 -24 20 -39 5z m32 -89 c3 -6 -1 -7 -9 -4 -18 7 -21 14 -7
14 6 0 13 -4 16 -10z m373 -223 c13 -14 13 -15 -4 -13 -10 2 -24 -1 -31 -6
-13 -10 -73 25 -73 43 0 5 -6 9 -14 9 -8 0 -17 4 -20 9 -9 14 125 -26 142 -42z
m102 -57 c8 -5 11 -10 5 -10 -5 0 -17 5 -25 10 -8 5 -10 10 -5 10 6 0 17 -5
25 -10z m-456 -16 c3 -8 2 -12 -4 -9 -6 3 -10 10 -10 16 0 14 7 11 14 -7z
m287 -15 c35 -12 72 -21 82 -21 9 1 15 -3 12 -8 -10 -16 -110 -7 -107 8 1 8
-2 11 -8 7 -5 -3 -10 -1 -10 4 0 6 -6 11 -14 11 -8 0 -18 5 -21 10 -8 13 -7
13 66 -11z m235 -10 c3 -6 -5 -3 -20 6 -14 10 -26 19 -26 22 0 7 39 -17 46
-28z m30 -4 c-4 -12 -2 -13 13 -6 10 6 22 7 26 3 3 -4 11 -7 16 -7 5 0 9 -4 9
-10 -1 -5 -10 -9 -20 -7 -11 2 -20 -1 -20 -7 0 -6 6 -8 13 -5 20 7 43 -24 29
-38 -8 -8 -21 0 -46 28 -36 39 -46 64 -25 64 6 0 9 -7 5 -15z m-289 -21 c21
-21 69 -44 77 -37 3 4 6 1 6 -6 0 -8 -7 -10 -22 -5 -13 4 -34 8 -48 9 -14 1
-24 7 -22 14 1 7 -2 10 -6 7 -5 -3 -22 6 -37 19 l-27 26 32 -6 c18 -3 39 -12
47 -21z m-87 -46 c0 -6 -6 -5 -15 2 -8 7 -15 14 -15 16 0 2 7 1 15 -2 8 -4 15
-11 15 -16z m238 -14 c-7 -6 -57 9 -53 17 3 4 17 3 30 -3 14 -6 24 -12 23 -14z
m-181 -1 c5 -15 -23 -11 -40 6 -10 10 -7 12 12 9 14 -1 26 -8 28 -15z m30 -18
c0 -8 -3 -13 -5 -10 -3 3 -10 1 -16 -4 -6 -5 -20 -5 -31 0 -18 7 -16 9 14 13
5 0 13 4 17 9 12 11 21 8 21 -8z m33 11 c0 -3 -4 -8 -10 -11 -5 -3 -10 -1 -10
4 0 6 5 11 10 11 6 0 10 -2 10 -4z m358 -13 c16 -16 16 -16 0 -10 -10 3 -18 2
-18 -4 0 -6 -5 -7 -12 -3 -9 6 -9 9 0 12 7 2 10 8 6 13 -9 15 6 10 24 -8z
m-28 -67 c0 -17 -15 -36 -29 -36 -13 0 -13 2 -2 9 7 5 10 14 7 20 -4 6 0 11 8
11 9 0 16 -2 16 -4z m30 -24 c0 -15 2 -15 10 -2 5 8 10 10 10 4 0 -6 15 -19
33 -28 17 -8 26 -16 19 -16 -7 0 -24 7 -37 16 -14 9 -25 13 -25 10 0 -4 -9 -2
-20 4 -11 6 -17 16 -14 25 8 19 24 10 24 -13z m120 -23 c0 -3 15 -14 33 -23
18 -9 25 -16 15 -16 -9 0 -20 5 -23 10 -4 6 -10 8 -14 6 -4 -3 -14 7 -22 22
-21 42 -22 49 -5 28 9 -11 16 -23 16 -27z m70 27 c0 -3 -4 -8 -10 -11 -5 -3
-10 -1 -10 4 0 6 5 11 10 11 6 0 10 -2 10 -4z m-846 -26 c13 0 35 -11 50 -25
15 -14 23 -25 18 -25 -5 0 -15 7 -22 15 -7 8 -16 12 -22 9 -5 -3 -15 0 -23 6
-8 7 -15 9 -15 4 0 -5 -5 -2 -10 6 -5 8 -9 20 -9 25 0 6 3 4 6 -2 2 -7 15 -13
27 -13z m220 -19 c3 -5 -1 -11 -9 -14 -9 -4 -12 -1 -8 9 6 16 10 17 17 5z m41
-1 c3 -5 -1 -10 -10 -10 -9 0 -13 5 -10 10 3 6 8 10 10 10 2 0 7 -4 10 -10z
m325 -21 c0 -5 -11 -4 -25 1 -20 8 -27 6 -32 -6 -3 -8 -15 -14 -27 -13 -11 1
-28 -1 -36 -4 -8 -3 -24 -8 -35 -10 -11 -3 -35 -10 -52 -15 -18 -6 -33 -7 -33
-3 0 11 96 41 145 44 11 1 25 7 32 13 13 13 63 7 63 -7z m174 13 c3 -5 -1 -9
-9 -9 -8 0 -12 4 -9 9 3 4 7 8 9 8 2 0 6 -4 9 -8z m-144 -17 c11 -13 10 -14
-4 -9 -9 3 -16 10 -16 15 0 13 6 11 20 -6z m85 -13 c18 -10 18 -11 3 -12 -10
0 -18 4 -18 10 0 5 -6 7 -14 4 -8 -3 -17 -1 -21 5 -8 14 23 9 50 -7z m-621
-54 c-3 -4 -9 -8 -15 -8 -5 0 -9 4 -9 8 0 5 7 9 15 9 8 0 12 -4 9 -9z m445
-12 c-2 -2 -17 -6 -34 -10 -22 -5 -26 -4 -15 4 14 9 59 15 49 6z m-469 -16 c0
-5 -2 -10 -4 -10 -3 0 -8 5 -11 10 -3 6 -1 10 4 10 6 0 11 -4 11 -10z m561
-19 c10 0 11 2 2 6 -20 7 -15 19 7 20 11 1 18 -2 15 -8 -4 -5 4 -9 17 -9 21
-1 20 -2 -7 -14 -16 -7 -34 -11 -38 -9 -4 3 -16 -1 -25 -9 -15 -12 -16 -11 -3
5 15 18 13 19 -37 20 -26 0 -18 13 13 19 11 3 25 -1 31 -9 6 -7 17 -13 25 -12z
m126 -25 c31 -18 44 -21 53 -12 8 8 10 7 4 -7 -3 -9 -1 -24 6 -32 7 -8 10 -15
6 -15 -4 0 1 -12 11 -27 9 -16 13 -25 8 -21 -4 4 -14 3 -22 -3 -7 -6 -13 -8
-13 -3 0 4 -7 -1 -15 -12 -13 -17 -14 -15 -9 25 3 25 6 49 7 54 1 5 -7 14 -18
20 -10 7 -25 18 -33 25 -13 12 -28 16 -45 13 -5 -1 -6 3 -2 9 9 14 15 13 62
-14z m94 -3 c0 -10 3 -31 5 -48 3 -16 3 -27 0 -24 -3 3 -7 14 -9 25 -2 10 -9
29 -15 42 -11 18 -10 22 3 22 8 0 15 -8 16 -17z m-221 -30 c0 -7 -7 -13 -16
-13 -8 0 -13 4 -9 9 3 6 -10 8 -32 5 -29 -3 -33 -2 -18 5 28 13 75 9 75 -6z
m60 -5 c0 -7 5 -6 14 1 10 8 21 8 45 -2 17 -7 28 -16 24 -20 -3 -4 -17 0 -31
9 -28 18 -20 -2 9 -23 25 -19 14 -51 -16 -45 -16 3 -22 9 -19 21 5 14 4 14 -5
0 -7 -10 -23 -15 -51 -14 -22 1 -40 -2 -40 -7 0 -4 19 -8 43 -9 25 0 35 -3 25
-7 -11 -5 -14 -12 -9 -21 6 -9 11 -10 15 -2 4 6 12 9 17 5 14 -8 0 -24 -22
-24 -10 0 -19 6 -19 14 0 23 -15 27 -36 10 -10 -9 -14 -13 -7 -10 6 4 14 2 17
-3 4 -5 -2 -8 -11 -7 -10 2 -19 8 -19 14 -1 7 -3 22 -4 35 -2 16 -4 17 -7 5
-5 -18 -33 -33 -33 -17 0 6 -4 7 -10 4 -6 -4 -10 6 -10 22 0 17 3 23 8 16 6
-10 17 -10 46 -2 21 6 44 8 52 5 21 -8 27 11 7 23 -10 6 -14 11 -9 11 5 0 18
-7 28 -17 12 -10 18 -12 18 -4 0 7 5 9 12 5 7 -4 8 -3 4 5 -4 6 -12 9 -17 6
-5 -4 -9 -2 -9 4 0 6 -11 13 -25 17 -14 3 -25 10 -25 14 0 4 11 5 25 2 14 -2
25 -9 25 -14z m607 -20 c-3 -8 -6 -5 -6 6 -1 11 2 17 5 13 3 -3 4 -12 1 -19z
m-892 2 c-3 -5 -12 -10 -18 -10 -7 0 -6 4 3 10 19 12 23 12 15 0z m-87 -67
c-6 -7 -16 -13 -22 -13 -6 0 -4 6 5 13 9 7 14 19 12 27 -4 13 -3 13 6 0 7 -10
6 -18 -1 -27z m952 -14 c0 -16 5 -29 13 -29 7 0 8 -3 2 -8 -9 -6 -11 -39 -7
-79 1 -7 10 -13 20 -13 12 0 13 3 5 8 -9 6 -7 11 5 19 16 10 18 7 16 -23 -3
-28 0 -34 16 -34 10 0 22 -5 26 -12 4 -7 3 -8 -4 -4 -7 4 -12 2 -12 -4 0 -6
-4 -8 -10 -5 -5 3 -7 0 -4 -8 3 -8 0 -18 -6 -22 -8 -5 -5 -11 7 -21 17 -13 17
-13 0 -14 -10 0 -15 -4 -12 -10 3 -5 1 -10 -5 -10 -8 0 -11 17 -8 49 2 36 0
47 -10 44 -7 -3 -12 -2 -11 3 3 20 -2 35 -10 29 -5 -3 -13 5 -17 17 -11 34
-13 169 -3 162 5 -3 9 -18 9 -35z m100 -24 c10 -11 21 -40 24 -65 6 -54 9 -72
18 -86 4 -6 9 -22 12 -37 4 -15 8 -38 11 -52 3 -14 3 -25 0 -25 -9 0 -32 55
-28 68 3 6 1 12 -4 12 -6 0 -10 6 -11 13 -1 6 -3 23 -5 37 -5 41 -19 80 -28
80 -5 0 -4 9 3 19 9 15 9 23 -1 35 -7 9 -17 13 -22 10 -11 -6 -12 8 -2 33 7
17 8 17 11 -2 2 -11 12 -29 22 -40z m-853 20 c0 -8 -4 -12 -9 -9 -5 3 -6 10
-3 15 9 13 12 11 12 -6z m-52 -5 c-3 -5 -12 -10 -18 -10 -7 0 -6 4 3 10 19 12
23 12 15 0z m95 -4 c0 -2 -7 -6 -15 -10 -8 -3 -15 -1 -15 4 0 6 7 10 15 10 8
0 15 -2 15 -4z m260 0 c0 -3 -4 -8 -10 -11 -5 -3 -10 -1 -10 4 0 6 5 11 10 11
6 0 10 -2 10 -4z m1005 -26 c3 -15 0 -20 -9 -17 -8 3 -19 0 -26 -6 -10 -9 -11
-9 -6 0 4 8 -3 15 -20 19 -18 5 -22 9 -13 15 8 5 17 3 21 -4 4 -7 8 -7 8 -2 0
6 5 3 10 -5 8 -12 11 -11 16 8 7 26 13 24 19 -8z m-1235 -15 c-14 -8 -29 -14
-35 -14 -5 0 1 6 15 14 14 8 30 14 35 14 6 0 -1 -6 -15 -14z m758 3 c-2 -6
-13 -12 -24 -14 -19 -3 -19 -3 0 12 24 17 29 18 24 2z m404 -5 c-6 -2 -9 -10
-6 -15 4 -7 2 -8 -4 -4 -18 11 -14 26 6 25 10 0 12 -3 4 -6z m-613 -5 c-2 -2
-17 -14 -34 -28 l-30 -25 24 28 c14 15 29 27 34 27 6 0 8 -1 6 -2z m411 -2 c0
-3 -4 -8 -10 -11 -5 -3 -10 -1 -10 4 0 6 5 11 10 11 6 0 10 -2 10 -4z m-1025
-16 c-3 -5 -18 -9 -33 -9 l-27 1 30 8 c17 4 31 8 33 9 2 0 0 -3 -3 -9z m995 0
c0 -5 -2 -10 -4 -10 -3 0 -8 5 -11 10 -3 6 -1 10 4 10 6 0 11 -4 11 -10z m110
-10 c8 -15 8 -20 -3 -20 -7 0 -13 9 -14 20 -1 11 0 20 2 20 2 0 9 -9 15 -20z
m84 12 c2 -4 -4 -8 -15 -8 -10 0 -19 4 -19 8 0 4 6 8 14 8 8 0 17 -4 20 -8z
m-1257 -18 c-3 -3 -12 -4 -19 -1 -8 3 -5 6 6 6 11 1 17 -2 13 -5z m23 -18 c0
-2 -8 -10 -17 -17 -16 -13 -17 -12 -4 4 13 16 21 21 21 13z m1165 -35 c2 -11
0 -21 -4 -21 -10 0 -21 37 -13 44 8 8 12 2 17 -23z m-1390 7 c-24 -14 -56 -18
-49 -6 4 5 12 7 20 4 7 -3 16 -1 19 4 4 6 12 10 18 10 7 0 3 -6 -8 -12z m269
-6 c-25 -16 -70 -60 -81 -78 -6 -10 -16 -18 -22 -16 -6 1 -11 -4 -11 -11 0 -7
-9 -18 -20 -25 -12 -7 -18 -17 -15 -22 3 -6 1 -10 -5 -10 -6 0 -9 -4 -6 -9 3
-5 -1 -14 -9 -21 -10 -9 -15 -9 -15 -1 0 6 4 11 9 11 6 0 8 8 6 19 -4 23 58
97 73 87 8 -5 10 -1 6 8 -3 9 -1 16 4 16 6 0 28 16 49 35 20 19 40 32 42 29 3
-3 1 -8 -5 -12z m1160 -13 c-3 -5 1 -9 9 -9 8 0 17 -6 20 -14 4 -9 0 -12 -13
-9 -10 3 -23 19 -29 35 -9 26 -9 29 4 18 8 -7 12 -16 9 -21z m-1041 0 c-8 -8
-13 -7 -18 2 -5 8 -4 10 3 5 7 -4 12 -2 12 5 0 7 3 9 7 6 4 -4 2 -12 -4 -18z
m-470 -6 c-3 -7 -6 -13 -8 -13 -2 0 -5 6 -8 13 -3 8 1 14 8 14 7 0 11 -6 8
-14z m1679 -15 c-6 -6 -16 -7 -22 -3 -9 6 -9 9 1 16 17 10 34 0 21 -13z
m-1192 4 c0 -5 -11 -14 -25 -20 -32 -15 -35 -15 -35 -1 0 5 4 8 9 5 4 -3 17 1
27 9 23 17 24 17 24 7z m-74 -68 c-9 -8 -16 -12 -16 -8 0 4 -9 -1 -20 -11 -12
-11 -20 -13 -20 -6 0 6 7 14 15 17 8 4 15 13 15 21 0 9 6 13 14 10 11 -4 13
-1 10 11 -5 15 -4 15 6 -1 9 -13 8 -21 -4 -33z m1108 25 c13 21 32 11 51 -26
10 -21 19 -42 19 -46 1 -4 6 -11 12 -15 7 -4 12 -20 12 -36 0 -15 5 -32 12
-36 8 -5 10 -15 6 -26 -7 -18 -8 -18 -20 -2 -7 10 -16 15 -20 11 -4 -4 -4 0 0
10 3 9 1 24 -6 32 -7 9 -13 30 -12 47 1 24 -2 28 -8 18 -8 -13 -10 -12 -10 3
0 9 -6 17 -12 17 -9 0 -8 4 2 11 12 9 12 10 -4 5 -18 -6 -45 17 -46 39 0 6 4
4 9 -4 6 -9 11 -10 15 -2z m-1024 -14 c0 -2 -6 -8 -13 -14 -10 -8 -14 -7 -14
2 0 8 6 14 14 14 7 0 13 -1 13 -2z m20 -30 c0 -2 -6 -8 -13 -14 -10 -8 -14 -7
-14 2 0 8 6 14 14 14 7 0 13 -1 13 -2z m140 -9 c0 -2 -7 -7 -16 -10 -8 -3 -12
-2 -9 4 6 10 25 14 25 6z m532 -23 c-6 -2 -9 -10 -6 -15 4 -7 2 -8 -5 -4 -13
9 -5 26 12 25 9 0 8 -2 -1 -6z m-565 -24 c1 -13 -3 -19 -11 -16 -8 3 -20 0
-27 -6 -8 -7 -3 0 10 16 14 15 25 27 26 27 0 0 1 -9 2 -21z m-22 -39 c-3 -5
-12 -10 -18 -10 -7 0 -6 4 3 10 19 12 23 12 15 0z m741 -44 c0 -14 -3 -23 -7
-20 -6 3 -6 22 0 42 3 10 7 -2 7 -22z m74 -10 c0 -2 -7 -7 -16 -10 -8 -3 -12
-2 -9 4 6 10 25 14 25 6z m375 -54 c11 -2 31 -3 45 -3 14 0 19 -3 12 -6 -10
-4 -10 -8 0 -21 12 -14 10 -14 -12 -1 -14 7 -28 14 -32 15 -5 1 -10 3 -13 4
-7 3 -22 7 -36 9 -5 0 -7 6 -3 12 3 6 9 7 13 3 3 -5 15 -10 26 -12z m-1020
-17 c-2 -29 -11 -43 -12 -17 -1 18 4 42 10 42 1 0 2 -11 2 -25z m572 10 c0 -8
-4 -12 -9 -9 -5 3 -6 10 -3 15 9 13 12 11 12 -6z m37 -3 c3 -5 -1 -9 -9 -9 -8
0 -12 4 -9 9 3 4 7 8 9 8 2 0 6 -4 9 -8z m516 4 c0 -3 -4 -8 -10 -11 -5 -3
-10 -1 -10 4 0 6 5 11 10 11 6 0 10 -2 10 -4z m-689 -36 c-10 -5 -9 -9 3 -13
9 -4 16 -1 16 5 0 6 9 3 21 -8 l21 -19 -31 -7 c-18 -5 -28 -13 -26 -21 6 -16
-12 -44 -22 -34 -4 5 -1 12 7 17 11 7 12 12 4 20 -9 9 -17 8 -32 -1 -30 -19
-38 -4 -18 33 13 23 26 33 43 35 16 0 21 -2 14 -7z m475 -21 c3 -6 -5 -3 -20
6 -14 10 -26 19 -26 22 0 7 39 -17 46 -28z m-396 17 c0 -9 -30 -14 -35 -6 -4
6 3 10 14 10 12 0 21 -2 21 -4z m595 -6 c3 -5 1 -10 -4 -10 -6 0 -11 5 -11 10
0 6 2 10 4 10 3 0 8 -4 11 -10z m-470 -10 c3 -5 1 -10 -4 -10 -6 0 -11 5 -11
10 0 6 2 10 4 10 3 0 8 -4 11 -10z m-37 -8 c12 10 14 10 8 1 -5 -9 1 -13 21
-13 19 0 24 -3 14 -9 -9 -6 -4 -8 15 -8 16 0 23 2 17 4 -7 3 -13 9 -13 13 0 5
12 2 28 -6 15 -7 31 -14 36 -14 5 0 17 -10 27 -22 21 -24 23 -21 9 16 -5 14
-16 26 -24 26 -8 0 -17 4 -21 10 -3 5 7 5 25 -1 16 -6 33 -15 36 -20 3 -5 10
-9 16 -9 6 0 5 7 -3 17 -21 26 50 -16 76 -44 11 -13 26 -23 32 -23 11 0 28
-29 24 -43 -1 -5 3 -6 8 -3 5 4 12 2 16 -4 3 -5 1 -10 -6 -10 -7 0 4 -16 24
-35 20 -19 40 -35 44 -35 4 0 1 5 -7 10 -12 8 -9 10 13 10 23 0 27 -4 28 -27
0 -25 1 -26 9 -8 8 18 9 18 9 2 1 -10 6 -15 11 -12 8 5 110 -59 110 -69 0 -1
-9 -2 -19 -2 -11 0 -17 4 -15 8 3 4 1 8 -5 8 -5 0 -22 11 -37 25 -14 13 -32
21 -38 18 -7 -5 -5 -9 7 -11 10 -2 14 -8 10 -15 -4 -6 -8 -20 -8 -31 -2 -16 0
-16 9 -5 12 16 30 18 43 5 4 -5 3 -6 -4 -3 -6 4 -19 0 -28 -9 -15 -15 -17 -15
-35 1 -13 12 -17 22 -11 29 6 7 6 17 -1 26 -8 13 -9 12 -5 -1 4 -12 -2 -18
-18 -22 -14 -2 -22 -1 -20 4 3 4 0 11 -6 15 -8 4 -9 3 -5 -4 4 -7 3 -12 -2
-12 -19 0 0 -36 43 -85 25 -28 45 -53 45 -57 0 -5 7 -8 16 -8 9 0 12 -5 8 -11
-4 -7 3 -20 17 -29 19 -15 21 -21 11 -33 -9 -10 -9 -17 -2 -20 6 -3 5 -4 -2
-2 -7 1 -12 8 -10 14 1 6 -5 14 -13 17 -8 3 -13 9 -11 13 2 3 -7 7 -20 7 -14
1 -21 -2 -17 -9 3 -6 1 -7 -6 -3 -9 6 -9 11 0 22 8 10 8 14 0 14 -6 0 -11 9
-11 19 0 21 -55 47 -65 31 -7 -11 -35 -1 -35 12 0 6 7 5 18 -2 9 -7 1 2 -18
21 -34 32 -35 32 -38 11 -2 -12 -7 -20 -12 -17 -5 3 -7 12 -4 19 3 7 -1 16 -9
19 -10 4 -14 -3 -13 -23 1 -22 7 -31 25 -35 24 -6 81 -42 93 -60 4 -5 4 -13 1
-19 -3 -5 -1 -6 5 -2 14 8 55 -17 45 -27 -3 -4 1 -7 10 -7 14 0 14 -3 2 -27
-8 -15 -11 -32 -7 -38 4 -6 -3 0 -15 14 -12 14 -21 27 -21 30 1 17 -3 31 -9
29 -5 0 -25 6 -45 15 -52 24 -56 21 -19 -13 34 -33 39 -42 16 -34 -8 4 -15 10
-15 15 0 13 -24 11 -38 -3 -9 -9 -5 -17 15 -34 15 -13 30 -21 35 -18 4 3 11
-1 14 -9 3 -8 15 -13 29 -12 19 3 23 -1 20 -20 -1 -15 2 -22 11 -18 14 5 48
-40 42 -58 -3 -8 -9 -7 -20 4 -8 9 -18 14 -20 12 -3 -3 -16 7 -30 22 -29 32
-48 48 -100 83 -37 25 -60 56 -36 47 17 -6 48 11 48 25 0 9 -3 9 -12 0 -9 -9
-15 -8 -27 3 -9 8 -28 26 -43 40 -15 14 -31 25 -35 25 -19 0 -43 12 -43 22 0
5 8 7 18 4 9 -4 1 7 -18 25 -19 17 -29 28 -22 25 23 -13 12 9 -15 28 -20 15
-25 16 -21 4 4 -8 1 -15 -7 -15 -10 0 -11 5 -5 17 6 11 5 21 -2 28 -20 20 7
40 31 25 11 -7 29 -10 40 -8 12 2 21 0 21 -6 0 -11 47 -12 54 -1 6 10 -54 48
-71 44 -6 -1 -15 3 -19 9 -5 8 -3 9 6 4 9 -5 11 -4 6 3 -4 7 -14 12 -22 12
-12 0 -12 4 -4 20 10 19 10 20 -9 8 -11 -6 -17 -16 -14 -22 3 -5 1 -6 -5 -2
-17 10 -15 26 3 26 8 0 15 7 15 16 0 8 -4 13 -9 9 -5 -3 -12 -1 -16 4 -7 12
26 7 53 -8 11 -6 22 -8 25 -5 2 3 21 -1 40 -9 33 -14 34 -14 29 5 -3 12 -7 16
-12 8 -5 -8 -10 -7 -19 4 -7 8 -10 20 -6 26 9 14 -18 13 -34 -2 -10 -9 -12 -9
-7 -1 4 7 -17 25 -56 47 -77 44 -70 46 17 5 36 -17 69 -28 74 -25 5 4 12 2 16
-4 3 -5 11 -10 17 -10 6 0 1 9 -12 20 -25 22 -35 26 -25 10 3 -5 1 -10 -4 -10
-6 0 -11 5 -11 11 0 5 -4 7 -10 4 -5 -3 -10 -2 -10 3 0 5 -12 14 -26 20 -16 8
-22 17 -18 25 6 9 5 9 -7 0 -15 -12 -69 -6 -69 8 0 5 -3 8 -7 7 -5 -1 -24 1
-43 6 -30 7 -32 9 -15 16 11 4 22 3 23 -2 2 -5 11 -3 20 4z m486 -7 c11 -8 17
-17 14 -21 -4 -3 -16 4 -27 15 -24 24 -15 28 13 6z m-124 -15 c8 0 39 -16 67
-35 29 -19 55 -35 58 -35 4 0 13 -7 21 -15 12 -12 12 -15 2 -16 -9 0 -9 -2 2
-6 8 -3 23 -14 34 -24 10 -10 24 -16 29 -12 6 4 7 1 2 -7 -6 -9 1 -21 21 -37
21 -17 25 -23 12 -23 -9 0 -23 9 -30 19 -8 11 -20 21 -28 23 -8 2 -28 16 -43
31 -18 18 -35 26 -45 22 -13 -5 -13 -2 3 15 10 11 14 20 8 20 -6 0 -27 11 -47
25 -20 13 -36 21 -36 17 0 -4 -5 1 -11 11 -5 9 -16 17 -23 17 -8 0 -20 8 -27
18 -11 14 -11 15 1 5 8 -7 21 -13 30 -13z m-480 -27 c0 -8 5 -11 10 -8 6 3 10
1 10 -5 0 -6 5 -8 13 -4 8 5 7 2 -2 -10 -8 -9 -20 -15 -26 -12 -7 2 -17 0 -23
-6 -6 -6 -12 -6 -17 3 -5 8 -4 10 3 5 7 -4 12 -2 12 4 0 7 9 9 23 5 22 -7 22
-7 2 8 -14 11 -22 12 -27 4 -9 -16 -20 -3 -13 15 7 19 35 19 35 1z m-1133 -25
c-3 -8 -6 -5 -6 6 -1 11 2 17 5 13 3 -3 4 -12 1 -19z m1989 -35 c-2 -2 -16 -6
-32 -8 -28 -5 -28 -5 -7 8 22 12 22 13 3 25 -11 7 -20 17 -20 24 0 6 13 -1 30
-17 16 -16 28 -30 26 -32z m-713 4 c3 -8 -1 -14 -9 -14 -15 0 -18 9 -7 20 9 9
10 9 16 -6z m431 -8 c-6 -11 -24 -2 -24 11 0 5 7 7 15 4 8 -4 12 -10 9 -15z
m-653 -6 c13 -16 12 -17 -3 -4 -10 7 -18 15 -18 17 0 8 8 3 21 -13z m967 -16
c8 0 12 -8 9 -18 -3 -10 5 -26 20 -39 20 -18 22 -24 12 -36 -12 -14 -14 -14
-26 2 -7 9 -10 21 -6 27 3 6 2 7 -4 4 -17 -11 -53 23 -53 50 0 20 4 24 18 18
9 -4 23 -8 30 -8z m-828 -13 c0 -8 -19 -13 -24 -6 -3 5 1 9 9 9 8 0 15 -2 15
-3z m125 -14 c3 -6 -1 -7 -9 -4 -18 7 -21 14 -7 14 6 0 13 -4 16 -10z m595
-54 c0 -11 -19 -15 -25 -6 -3 5 1 10 9 10 9 0 16 -2 16 -4z m60 -6 c0 -5 -4
-10 -10 -10 -5 0 -10 5 -10 10 0 6 5 10 10 10 6 0 10 -4 10 -10z m-1165 -91
c-18 -40 -35 -51 -35 -24 0 8 5 15 10 15 7 0 7 7 -1 21 -10 20 -9 21 10 16 11
-3 21 -1 21 4 0 5 -4 9 -9 9 -4 0 -7 10 -6 23 4 34 6 34 17 4 8 -23 6 -37 -7
-68z m45 70 c0 -15 -18 -19 -23 -6 -3 8 1 14 9 14 8 0 14 -4 14 -8z m1013 -19
c-3 -12 -8 -19 -11 -16 -5 6 5 36 12 36 2 0 2 -9 -1 -20z m-109 -18 c3 -5 -1
-9 -9 -9 -8 0 -12 4 -9 9 3 4 7 8 9 8 2 0 6 -4 9 -8z m-1787 -24 c-3 -8 -6 -5
-6 6 -1 11 2 17 5 13 3 -3 4 -12 1 -19z m483 8 c0 -3 -4 -8 -10 -11 -5 -3 -10
-1 -10 4 0 6 5 11 10 11 6 0 10 -2 10 -4z m1420 -45 c0 -14 -29 -21 -36 -9 -4
7 -3 8 4 4 7 -4 12 -2 12 3 0 6 5 11 10 11 6 0 10 -4 10 -9z m-105 -19 c-3 -3
-11 0 -18 7 -9 10 -8 11 6 5 10 -3 15 -9 12 -12z m125 -6 c0 -3 -4 -8 -10 -11
-5 -3 -10 -1 -10 4 0 6 5 11 10 11 6 0 10 -2 10 -4z m-515 -19 c11 -9 14 -16
8 -20 -6 -4 -14 0 -17 9 -3 8 -10 13 -15 9 -5 -3 -12 -1 -16 5 -9 15 18 12 40
-3z m405 9 c0 -3 -4 -8 -10 -11 -5 -3 -10 -1 -10 4 0 6 5 11 10 11 6 0 10 -2
10 -4z m142 -41 c26 -29 26 -31 8 -32 -11 -1 -20 3 -20 8 0 6 -4 8 -9 5 -5 -4
-7 4 -3 16 3 14 2 19 -6 14 -7 -4 -12 -3 -12 2 0 8 12 25 14 19 1 -1 13 -16
28 -32z m-1317 15 c3 -5 1 -10 -4 -10 -6 0 -11 5 -11 10 0 6 2 10 4 10 3 0 8
-4 11 -10z m1210 -41 c4 -17 2 -19 -10 -9 -8 7 -15 19 -15 26 0 8 -5 14 -11
14 -5 0 -7 5 -4 10 8 14 35 -13 40 -41z m-150 11 c10 -11 14 -20 8 -20 -5 0
-18 9 -28 20 -10 11 -14 20 -8 20 5 0 18 -9 28 -20z m-658 -53 c17 -20 22 -56
9 -65 -21 -15 -74 -4 -97 20 -9 10 -19 16 -23 13 -3 -3 -2 0 2 6 5 5 19 11 31
12 11 1 21 6 21 12 0 15 46 17 57 2z m47 -32 c-4 -8 -10 -13 -15 -10 -4 3 -6
12 -3 20 4 8 10 13 15 10 4 -3 6 -12 3 -20z m948 -14 c10 -13 10 -14 -2 -3 -8
6 -22 12 -31 12 -10 0 -20 4 -23 9 -10 15 43 -1 56 -18z m-1982 9 c-8 -5 -19
-10 -25 -10 -5 0 -3 5 5 10 8 5 20 10 25 10 6 0 3 -5 -5 -10z m1725 -8 c-3 -3
-11 0 -18 7 -9 10 -8 11 6 5 10 -3 15 -9 12 -12z m-1765 -12 c0 -5 -5 -10 -11
-10 -5 0 -7 5 -4 10 3 6 8 10 11 10 2 0 4 -4 4 -10z m1785 -30 c7 0 19 -8 26
-17 8 -9 9 -14 2 -10 -6 4 -13 4 -16 0 -2 -5 -2 -2 0 6 3 11 1 12 -12 1 -12
-10 -15 -10 -15 3 0 16 -26 31 -33 19 -2 -4 -3 -2 -1 4 1 6 -3 17 -9 24 -7 8
1 4 17 -8 16 -12 34 -22 41 -22z m5 20 c0 -5 -2 -10 -4 -10 -3 0 -8 5 -11 10
-3 6 -1 10 4 10 6 0 11 -4 11 -10z m-694 -40 c0 -18 -6 -30 -14 -30 -7 0 -11
-4 -8 -9 3 -5 -1 -12 -10 -15 -15 -6 -15 -4 0 19 9 14 14 25 11 25 -3 0 -1 9
5 20 15 27 18 25 16 -10z m445 -17 c13 -16 12 -17 -3 -4 -17 13 -22 21 -14 21
2 0 10 -8 17 -17z m312 11 c-7 -3 -9 -13 -6 -22 4 -14 3 -14 -5 -2 -12 16 -7
30 11 29 9 0 9 -2 0 -5z m-257 -45 c19 -22 19 -22 -3 -8 -13 8 -23 17 -23 21
0 12 6 9 26 -13z m-1529 5 c-3 -3 -12 -4 -19 -1 -8 3 -5 6 6 6 11 1 17 -2 13
-5z m1435 -13 c7 -10 29 -28 48 -40 21 -13 28 -21 18 -21 -9 0 -20 5 -23 10
-3 6 -14 10 -23 10 -13 -1 -9 -7 13 -25 17 -14 38 -28 48 -31 10 -3 30 -17 44
-30 20 -19 22 -23 7 -18 -10 4 -21 10 -24 14 -8 11 -84 60 -92 60 -4 0 -4 -8
-1 -17 6 -16 5 -17 -13 -4 -18 14 -18 14 -1 -5 15 -16 19 -17 27 -4 7 10 10
11 10 2 0 -7 11 -17 25 -22 14 -5 25 -13 24 -17 -5 -33 2 -45 26 -41 19 4 23
2 15 -7 -5 -6 -6 -16 -2 -21 4 -4 -1 -2 -10 5 -17 12 -22 9 -19 -12 1 -4 -8
-3 -20 3 -11 7 -18 14 -15 17 3 3 1 14 -4 24 -8 13 -6 20 7 28 23 13 8 14 -17
1 -13 -7 -19 -6 -24 6 -3 8 -10 13 -15 10 -5 -4 -23 14 -40 40 -27 39 -28 43
-9 30 30 -21 55 -22 38 -1 -9 10 -9 15 -1 15 6 0 11 5 11 11 0 6 -9 8 -20 4
-12 -4 -20 -2 -20 5 0 6 6 8 13 4 7 -4 9 -3 4 2 -5 5 -14 9 -19 9 -6 0 -13 6
-15 13 -7 19 34 14 49 -7z m456 -6 c-3 -3 -9 2 -12 12 -6 14 -5 15 5 6 7 -7
10 -15 7 -18z m-988 -24 c0 -4 -7 -8 -15 -8 -8 0 -15 6 -15 13 0 8 6 11 15 8
8 -4 15 -9 15 -13z m820 -3 c0 -6 -6 -5 -15 2 -8 7 -15 14 -15 16 0 2 7 1 15
-2 8 -4 15 -11 15 -16z m-156 6 c9 -3 16 -10 16 -14 0 -10 -38 -1 -46 11 -6
10 7 12 30 3z m-180 -133 c-6 -6 -34 20 -34 32 0 6 8 2 19 -9 10 -10 17 -21
15 -23z m335 -20 c-2 -6 -12 4 -22 22 l-18 32 21 -21 c13 -12 21 -27 19 -33z
m-271 27 c-2 -7 3 -12 10 -10 8 1 11 -2 7 -8 -5 -8 -11 -8 -21 1 -7 6 -11 15
-8 20 8 13 14 11 12 -3z m292 2 c0 -5 -2 -10 -4 -10 -3 0 -8 5 -11 10 -3 6 -1
10 4 10 6 0 11 -4 11 -10z m-420 -20 c0 -5 -2 -10 -4 -10 -3 0 -8 5 -11 10 -3
6 -1 10 4 10 6 0 11 -4 11 -10z m410 -40 c0 -5 -2 -10 -4 -10 -3 0 -8 5 -11
10 -3 6 -1 10 4 10 6 0 11 -4 11 -10z m-145 -38 c11 -6 15 -12 8 -12 -6 0 -15
5 -19 11 -4 8 -9 8 -17 0 -14 -14 -24 -14 -30 2 -6 16 30 15 58 -1z"/>
<path d="M1015 2830 c3 -5 8 -10 11 -10 2 0 4 5 4 10 0 6 -5 10 -11 10 -5 0
-7 -4 -4 -10z"/>
<path d="M1500 2253 c0 -25 15 -38 25 -22 4 6 0 18 -9 27 -15 15 -16 15 -16
-5z"/>
<path d="M1430 2240 c0 -5 5 -10 11 -10 5 0 7 5 4 10 -3 6 -8 10 -11 10 -2 0
-4 -4 -4 -10z"/>
<path d="M2051 1668 c-1 -9 -7 -18 -13 -21 -7 -2 -11 -7 -8 -10 3 -3 16 3 30
15 14 11 20 17 13 14 -6 -3 -14 0 -16 6 -4 8 -6 7 -6 -4z"/>
<path d="M2450 1625 c0 -3 11 -17 24 -31 15 -17 26 -22 30 -15 5 7 2 10 -6 9
-7 -2 -12 3 -10 11 2 8 -3 18 -10 22 -15 10 -28 11 -28 4z"/>
<path d="M2510 1565 c0 -2 9 -9 20 -15 16 -9 18 -8 14 5 -5 13 -34 22 -34 10z"/>
<path d="M2460 1530 c-17 -4 -21 -8 -12 -14 6 -4 12 -4 12 0 0 4 9 -1 20 -11
10 -9 26 -15 34 -12 9 4 18 2 21 -3 4 -6 -1 -10 -10 -10 -9 0 -14 -4 -10 -10
3 -5 12 -7 21 -3 8 3 14 1 12 -3 -2 -5 8 -21 21 -34 13 -14 20 -18 16 -10 -5
8 -4 12 0 8 5 -5 9 -19 11 -33 1 -13 10 -35 19 -47 l17 -23 -5 25 c-17 82 -28
100 -59 100 -10 0 -17 4 -14 8 8 14 -24 52 -44 52 -10 0 -20 6 -22 13 -2 9
-12 11 -28 7z"/>
<path d="M2320 1383 c0 -8 73 -73 82 -73 4 0 10 -9 13 -20 3 -11 13 -20 20
-20 8 0 18 -6 22 -12 4 -7 18 -21 30 -31 21 -18 21 -18 18 0 -2 10 -4 18 -5
18 -1 0 -3 9 -5 19 -2 11 -11 23 -19 28 -9 5 -26 20 -39 33 -36 38 -117 78
-117 58z"/>
<path d="M2553 825 c0 -8 4 -15 9 -15 4 0 8 4 8 9 0 6 -4 12 -8 15 -5 3 -9 -1
-9 -9z"/>
<path d="M780 3156 c0 -3 9 -10 20 -16 11 -6 20 -8 20 -6 0 3 -9 10 -20 16
-11 6 -20 8 -20 6z"/>
<path d="M872 3096 c13 -13 25 -22 27 -20 6 5 -30 44 -41 44 -5 0 2 -11 14
-24z"/>
<path d="M2126 3095 c4 -8 8 -15 10 -15 2 0 4 7 4 15 0 8 -4 15 -10 15 -5 0
-7 -7 -4 -15z"/>
<path d="M985 2930 c-3 -5 -1 -10 4 -10 6 0 11 5 11 10 0 6 -2 10 -4 10 -3 0
-8 -4 -11 -10z"/>
<path d="M655 2890 c10 -11 20 -20 22 -20 2 0 -1 9 -7 20 -6 11 -16 20 -22 20
-6 0 -3 -9 7 -20z"/>
<path d="M1940 2884 c0 -8 5 -12 10 -9 6 4 8 11 5 16 -9 14 -15 11 -15 -7z"/>
<path d="M1763 2875 c0 -7 6 -11 14 -8 7 3 13 6 13 8 0 2 -6 5 -13 8 -8 3 -14
-1 -14 -8z"/>
<path d="M1735 2829 c-10 -30 0 -33 13 -4 6 14 7 25 2 25 -5 0 -12 -9 -15 -21z"/>
<path d="M1888 2813 c7 -3 16 -2 19 1 4 3 -2 6 -13 5 -11 0 -14 -3 -6 -6z"/>
<path d="M1823 2798 c-11 -18 -14 -35 -18 -98 -2 -30 -4 -62 -4 -70 -1 -12 -5
-10 -18 5 -15 19 -15 18 -10 -19 4 -25 2 -46 -6 -55 -10 -14 -10 -14 4 -4 13
10 18 7 32 -16 9 -15 13 -32 9 -36 -4 -5 -2 -5 4 -2 7 4 14 15 17 26 3 14 1
18 -11 14 -12 -5 -14 -1 -10 20 3 15 2 24 -2 22 -4 -2 -7 2 -7 10 0 8 4 12 8
9 4 -2 6 11 5 31 -2 19 0 37 4 40 5 3 9 -7 9 -22 2 -54 4 -63 17 -63 7 0 16 5
20 12 4 7 3 8 -4 4 -8 -5 -12 1 -12 16 0 13 0 31 0 41 -1 42 3 68 11 73 5 3 9
0 9 -7 0 -26 21 7 25 39 3 24 0 32 -12 32 -10 0 -14 -6 -10 -20 3 -11 0 -23
-5 -27 -7 -3 -8 -1 -4 5 4 7 3 12 -3 12 -16 0 -28 -32 -25 -64 2 -15 0 -25 -4
-21 -9 9 -11 85 -3 85 4 0 7 9 7 20 0 23 -2 24 -13 8z"/>
<path d="M1610 2775 c0 -8 4 -15 10 -15 5 0 7 7 4 15 -4 8 -8 15 -10 15 -2 0
-4 -7 -4 -15z"/>
<path d="M1723 2771 c0 -11 6 -17 12 -14 5 3 4 0 -2 -8 -7 -7 -13 -20 -12 -28
0 -12 2 -13 6 -2 4 10 7 10 13 1 5 -7 9 0 12 19 3 23 1 31 -11 31 -14 0 -14 1
-1 10 13 8 13 10 -2 10 -10 0 -16 -7 -15 -19z"/>
<path d="M1607 2737 c-3 -8 -1 -20 4 -28 5 -9 9 -9 9 -2 0 6 3 18 6 27 3 9 2
16 -4 16 -5 0 -12 -6 -15 -13z"/>
<path d="M1724 2693 c-9 -3 -9 -13 -2 -38 13 -40 41 -38 33 3 -5 30 -15 41
-31 35z m19 -18 c4 -8 3 -16 -1 -19 -4 -3 -9 4 -9 15 -2 23 3 25 10 4z"/>
<path d="M2138 2670 c-3 -16 -3 -30 -2 -30 2 0 10 14 19 30 13 25 13 30 1 30
-8 0 -16 -13 -18 -30z"/>
<path d="M1565 2680 c3 -5 8 -10 11 -10 2 0 4 5 4 10 0 6 -5 10 -11 10 -5 0
-7 -4 -4 -10z"/>
<path d="M1674 2664 c1 -32 2 -35 46 -84 31 -35 31 -35 27 -8 -2 16 1 25 7 24
6 -2 8 -1 3 1 -4 3 -4 10 -1 15 4 6 2 8 -4 5 -14 -9 -42 2 -42 17 0 6 -9 22
-19 35 l-18 24 1 -29z"/>
<path d="M630 2665 c-9 -11 -7 -16 9 -24 26 -14 27 -14 28 8 2 24 -22 34 -37
16z m24 -3 c3 -5 -1 -9 -9 -9 -8 0 -12 4 -9 9 3 4 7 8 9 8 2 0 6 -4 9 -8z"/>
<path d="M2110 2659 c0 -5 5 -7 10 -4 6 3 10 8 10 11 0 2 -4 4 -10 4 -5 0 -10
-5 -10 -11z"/>
<path d="M1677 2593 c-2 -4 4 -17 14 -27 22 -22 25 -10 5 17 -8 10 -16 15 -19
10z"/>
<path d="M2037 2593 c-10 -9 -9 -23 1 -23 5 0 9 7 9 15 0 17 -1 18 -10 8z"/>
<path d="M1830 2575 c0 -2 6 -8 13 -14 10 -8 14 -7 14 2 0 8 -6 14 -14 14 -7
0 -13 -1 -13 -2z"/>
<path d="M2046 2549 c2 -4 -2 -11 -10 -16 -7 -4 -16 -17 -18 -28 -2 -11 -9
-19 -14 -18 -12 2 -12 -45 0 -68 4 -8 0 -5 -8 6 -9 11 -14 25 -12 32 3 8 -1
10 -11 6 -12 -5 -14 -3 -8 7 5 9 4 11 -4 6 -9 -6 -9 -11 0 -23 10 -12 10 -16
-1 -23 -11 -7 -11 -14 0 -40 8 -18 18 -29 26 -26 7 3 16 -4 20 -17 11 -38 24
-48 45 -36 11 5 17 14 13 20 -4 6 -11 6 -20 -2 -8 -6 -17 -9 -21 -5 -3 3 0 6
7 6 7 0 11 3 7 6 -3 4 1 13 9 21 8 8 11 20 7 26 -4 7 2 5 12 -3 10 -8 16 -10
12 -4 -8 13 34 62 49 57 19 -6 66 44 61 64 -3 15 -5 15 -14 -6 -8 -20 -11 -21
-16 -8 -4 10 -2 17 4 17 6 0 9 10 7 23 -2 12 -7 22 -13 22 -5 0 -16 4 -22 8
-8 5 -13 3 -13 -5 0 -8 -3 -9 -8 -3 -8 12 -73 15 -66 4z m51 -26 c-4 -3 -1
-13 6 -22 11 -14 10 -14 -5 -2 -16 12 -16 31 -1 31 4 0 3 -3 0 -7z m33 -3 c0
-5 -5 -10 -11 -10 -5 0 -7 5 -4 10 3 6 8 10 11 10 2 0 4 -4 4 -10z m-136 -126
c3 -8 2 -12 -4 -9 -6 3 -10 10 -10 16 0 14 7 11 14 -7z"/>
<path d="M1984 2528 c1 -10 6 -18 11 -18 6 0 10 8 11 18 1 10 -4 19 -11 19 -7
0 -12 -9 -11 -19z"/>
<path d="M1730 2526 c0 -8 4 -17 8 -20 4 -2 8 4 8 15 0 10 -4 19 -8 19 -4 0
-8 -6 -8 -14z"/>
<path d="M1675 2499 c-4 -6 -5 -12 -2 -15 2 -3 7 2 10 11 7 17 1 20 -8 4z"/>
<path d="M1832 2490 c-7 -11 -8 -20 -3 -20 9 0 24 30 18 36 -1 2 -8 -6 -15
-16z"/>
<path d="M1805 2450 c3 -5 8 -10 11 -10 2 0 4 5 4 10 0 6 -5 10 -11 10 -5 0
-7 -4 -4 -10z"/>
<path d="M1895 2431 c-3 -6 1 -21 10 -33 16 -23 16 -23 9 7 -8 37 -10 39 -19
26z"/>
<path d="M2111 2408 c-12 -4 -21 -12 -21 -18 0 -15 32 -50 42 -44 4 3 8 -4 8
-15 0 -25 15 -28 24 -5 9 24 7 31 -4 14 -10 -16 -12 -13 -14 33 -2 34 4 40 22
21 7 -8 8 -14 2 -14 -5 0 -10 -4 -10 -10 0 -5 6 -9 13 -7 7 1 11 -6 9 -18 -2
-16 -1 -17 7 -5 7 9 6 19 -1 27 -6 7 -7 13 -4 13 4 0 2 9 -4 19 -10 20 -33 23
-69 9z"/>
<path d="M2475 2398 c1 -7 8 -12 15 -10 7 1 20 -3 29 -10 14 -12 15 -11 2 5
-8 10 -20 16 -27 13 -7 -3 -15 -1 -18 5 -2 5 -3 4 -1 -3z"/>
<path d="M1880 2359 c0 -5 5 -7 10 -4 6 3 10 8 10 11 0 2 -4 4 -10 4 -5 0 -10
-5 -10 -11z"/>
<path d="M2070 2350 c0 -5 5 -10 11 -10 5 0 7 -6 3 -12 -4 -7 -3 -9 1 -5 15
13 14 37 -1 37 -8 0 -14 -4 -14 -10z"/>
<path d="M2315 2340 c-4 -6 -11 -8 -16 -5 -5 4 -9 -1 -9 -10 0 -9 -5 -13 -10
-10 -6 4 -7 12 -3 18 4 7 0 6 -10 -2 -9 -7 -17 -20 -17 -27 0 -20 37 -17 49 4
9 15 10 15 11 1 0 -12 8 -15 26 -13 15 1 38 -2 53 -7 l26 -9 -23 18 c-19 15
-21 20 -10 29 7 6 22 13 33 16 14 3 10 5 -11 6 -23 1 -33 -5 -41 -21 -6 -15
-12 -18 -17 -10 -4 7 -2 12 3 12 6 0 11 5 11 10 0 13 -37 13 -45 0z"/>
<path d="M2841 2331 c-8 -5 -9 -11 -3 -15 5 -3 12 1 16 9 6 17 6 18 -13 6z"/>
<path d="M3007 2333 c-13 -12 -7 -25 6 -14 8 6 17 8 20 4 4 -3 7 -1 7 5 0 13
-22 16 -33 5z"/>
<path d="M737 2315 c9 -7 25 -10 35 -7 13 3 18 -1 18 -17 0 -28 12 -27 26 3
10 21 9 23 -4 18 -8 -3 -13 -1 -10 4 3 5 -14 9 -38 10 -36 1 -41 -1 -27 -11z"/>
<path d="M2511 2327 c2 -1 13 -9 24 -17 19 -14 19 -14 6 3 -7 9 -18 17 -24 17
-6 0 -8 -1 -6 -3z"/>
<path d="M633 2295 c0 -8 4 -15 9 -15 4 0 8 4 8 9 0 6 -4 12 -8 15 -5 3 -9 -1
-9 -9z"/>
<path d="M2213 2299 c-13 -5 -23 -17 -23 -28 0 -18 3 -19 30 -10 31 11 35 17
22 35 -4 7 -15 8 -29 3z"/>
<path d="M723 2274 c0 -7 3 -12 5 -9 3 3 11 0 19 -6 10 -9 13 -8 13 0 0 7 5 9
10 6 6 -3 10 -1 10 5 0 7 -6 10 -12 7 -7 -2 -20 -1 -29 4 -11 5 -16 3 -16 -7z"/>
<path d="M2465 2280 c-3 -6 1 -7 9 -4 18 7 21 14 7 14 -6 0 -13 -4 -16 -10z"/>
<path d="M2157 2266 c-3 -8 -2 -18 3 -21 13 -8 24 15 12 27 -6 6 -11 4 -15 -6z"/>
<path d="M2533 2253 c-7 -3 -13 -9 -13 -15 0 -7 5 -7 13 1 8 6 16 8 19 5 3 -3
8 -1 12 4 5 9 -10 12 -31 5z"/>
<path d="M2090 2240 c0 -5 5 -10 10 -10 6 0 10 5 10 10 0 6 -4 10 -10 10 -5 0
-10 -4 -10 -10z"/>
<path d="M2364 2238 c-3 -5 1 -8 8 -9 7 0 23 -2 35 -5 16 -3 21 0 17 11 -6 15
-52 17 -60 3z"/>
<path d="M2575 2242 c-11 -11 -4 -24 9 -19 7 3 18 1 24 -5 6 -6 12 -6 17 1 4
7 1 10 -7 9 -7 -2 -12 2 -11 8 2 11 -23 15 -32 6z"/>
<path d="M2646 2227 c3 -10 9 -15 12 -12 3 3 0 11 -7 18 -10 9 -11 8 -5 -6z"/>
<path d="M2704 2205 c-19 -14 -18 -14 3 -15 12 0 24 -6 27 -12 2 -7 4 -3 2 9
-3 31 -10 35 -32 18z"/>
<path d="M2750 2164 c0 -8 5 -14 11 -14 6 0 9 -9 6 -19 -4 -18 -2 -19 32 -12
2 1 -3 8 -10 18 -13 15 -12 15 9 4 18 -9 22 -9 20 1 -2 8 4 12 15 10 9 -2 17
2 17 8 0 6 -4 8 -10 5 -5 -3 -10 -1 -10 6 0 7 -7 4 -15 -7 -8 -10 -15 -14 -15
-8 0 17 -50 24 -50 8z"/>
<path d="M2556 2161 c-3 -5 1 -11 9 -15 8 -3 15 -1 15 5 0 6 5 7 10 4 6 -4 7
-11 4 -17 -4 -7 -2 -8 4 -4 21 13 13 36 -12 36 -14 0 -27 -4 -30 -9z"/>
<path d="M2629 2153 c-11 -15 -11 -16 0 -6 10 9 22 7 52 -9 21 -11 43 -17 48
-14 5 3 11 1 13 -6 3 -8 7 -6 11 4 4 12 1 16 -13 13 -10 -2 -36 5 -56 16 -46
23 -39 23 -55 2z"/>
<path d="M2870 2139 c6 -10 13 -19 16 -19 3 0 2 5 -1 10 -3 6 -1 10 5 10 7 0
10 -6 7 -12 -2 -7 -15 -13 -30 -12 -17 1 -24 -3 -20 -12 3 -9 -2 -14 -12 -14
-9 0 -15 -6 -12 -12 2 -7 9 -12 15 -11 6 2 9 -4 6 -11 -4 -10 0 -13 13 -11 10
1 17 7 16 12 -1 5 9 9 23 9 17 0 23 -4 19 -14 -5 -13 -3 -13 11 -1 9 8 29 13
43 12 19 -1 20 0 6 4 -11 3 -26 13 -33 22 -7 9 -11 11 -8 5 3 -7 -9 -10 -33
-10 -22 1 -37 5 -34 9 3 5 10 6 17 4 14 -6 37 18 28 29 -4 4 1 4 11 1 11 -4
17 -1 17 9 0 8 -4 13 -9 10 -4 -3 -22 -1 -40 4 -29 8 -30 7 -21 -11z"/>
<path d="M821 2085 c-1 -6 -13 -18 -28 -27 -16 -10 -21 -17 -13 -17 23 0 53
26 47 41 -3 7 -6 8 -6 3z"/>
<path d="M2690 2054 c-16 -10 -18 -13 -5 -8 50 17 73 16 84 -4 8 -15 8 -23 -1
-28 -6 -4 -9 -3 -6 2 3 5 -1 16 -10 24 -14 13 -15 12 -8 -5 5 -11 9 -26 9 -32
0 -10 4 -10 16 0 9 6 19 17 23 22 4 6 13 10 20 10 7 0 13 7 13 14 0 22 -102
25 -135 5z"/>
<path d="M2628 2023 c6 -3 9 -10 5 -16 -4 -7 2 -5 13 3 10 8 20 15 22 16 2 1
-10 1 -25 1 -15 0 -22 -2 -15 -4z"/>
<path d="M2817 1991 c-3 -12 -1 -19 3 -16 5 3 10 0 12 -7 5 -14 48 -18 45 -4
-1 6 4 10 12 8 36 -8 161 -8 161 -1 0 11 3 11 -114 14 -64 2 -101 7 -106 15
-5 8 -9 5 -13 -9z"/>
<path d="M2715 1989 c-5 -8 -4 -14 3 -17 7 -2 18 -10 26 -17 7 -8 16 -11 20
-8 11 11 6 23 -9 23 -7 0 -18 7 -23 16 -7 13 -11 14 -17 3z"/>
<path d="M2685 1935 c30 -25 59 -39 51 -26 -4 6 -22 18 -39 27 -30 14 -31 14
-12 -1z"/>
<path d="M2870 1921 c0 -5 9 -11 20 -14 12 -3 20 0 20 7 0 6 -9 12 -20 13 -11
1 -20 -2 -20 -6z"/>
<path d="M2756 1907 c3 -8 11 -14 19 -14 20 0 19 4 -5 17 -15 8 -18 8 -14 -3z"/>
<path d="M2954 1909 c-4 -8 68 -21 75 -14 2 3 -4 5 -15 5 -14 0 -16 2 -6 9 9
5 3 8 -18 7 -18 -1 -34 -4 -36 -7z"/>
<path d="M2845 1889 c7 -10 55 -18 55 -9 0 4 -13 10 -29 12 -17 2 -28 1 -26
-3z"/>
<path d="M2911 1873 c0 -10 3 -13 6 -6 3 10 11 9 33 -2 34 -18 40 -18 40 -4 0
5 -4 8 -9 4 -5 -3 -15 0 -23 7 -21 21 -48 21 -47 1z"/>
<path d="M3051 1886 c8 -8 79 -35 79 -30 0 3 -16 12 -35 20 -33 14 -53 18 -44
10z"/>
<path d="M2851 1826 c-16 -19 28 -56 54 -46 28 12 37 12 30 0 -4 -6 8 -10 29
-10 20 0 36 -4 36 -8 0 -5 6 -9 13 -9 8 0 14 6 14 13 0 7 -3 13 -6 12 -19 -2
-31 3 -28 13 1 6 -4 14 -12 17 -10 3 -11 0 -5 -9 7 -12 5 -12 -9 0 -18 15 -23
26 -7 16 6 -3 10 -1 10 4 0 14 -40 14 -60 1 -10 -6 -11 -10 -2 -10 6 0 12 -4
12 -10 0 -18 -22 -10 -27 9 -6 25 -28 34 -42 17z"/>
<path d="M3173 1753 c4 -6 1 -14 -5 -16 -7 -3 0 -6 16 -6 16 -1 27 0 25 2 -2
1 -13 9 -23 17 -11 8 -17 10 -13 3z"/>
<path d="M3136 1722 c-3 -4 4 -9 15 -9 23 -2 25 3 4 10 -8 4 -16 3 -19 -1z"/>
<path d="M3188 1698 c5 -5 16 -8 23 -6 8 3 3 7 -10 11 -17 4 -21 3 -13 -5z"/>
<path d="M3113 1693 c23 -6 22 -23 -2 -23 -11 0 -22 -8 -24 -17 -4 -16 -6 -15
-12 3 -5 15 -13 20 -26 17 -18 -5 -18 -6 4 -23 23 -18 100 -21 114 -5 5 4 0 5
-10 2 -13 -5 -17 -3 -14 5 7 20 -12 48 -31 47 -16 -1 -16 -2 1 -6z"/>
<path d="M2888 1683 c7 -3 16 -2 19 1 4 3 -2 6 -13 5 -11 0 -14 -3 -6 -6z"/>
<path d="M962 1630 c-18 -29 -15 -38 4 -12 9 13 14 25 12 27 -2 2 -9 -5 -16
-15z"/>
<path d="M845 1320 c-4 -6 -11 -7 -17 -4 -7 4 -8 2 -4 -4 5 -9 13 -9 27 -2 10
6 19 13 19 15 0 9 -19 5 -25 -5z"/>
<path d="M870 1245 c0 -9 5 -15 11 -13 6 2 11 8 11 13 0 5 -5 11 -11 13 -6 2
-11 -4 -11 -13z"/>
<path d="M3033 1193 c4 -6 1 -14 -5 -16 -7 -3 0 -6 16 -6 16 -1 27 0 25 2 -2
1 -13 9 -23 17 -11 8 -17 10 -13 3z"/>
<path d="M2955 1070 c-3 -5 -1 -10 4 -10 6 0 11 5 11 10 0 6 -2 10 -4 10 -3 0
-8 -4 -11 -10z"/>
<path d="M2866 765 c3 -7 12 -16 19 -19 9 -3 12 0 9 9 -3 7 -12 16 -19 19 -9
3 -12 0 -9 -9z"/>
<path d="M2720 700 c0 -5 5 -10 11 -10 5 0 7 5 4 10 -3 6 -8 10 -11 10 -2 0
-4 -4 -4 -10z"/>
<path d="M2745 681 c-3 -5 -1 -12 5 -16 5 -3 10 1 10 9 0 18 -6 21 -15 7z"/>
<path d="M2665 626 c4 -31 5 -32 14 -16 16 27 16 33 0 35 -11 2 -15 -4 -14
-19z"/>
<path d="M2724 619 c-3 -6 -2 -15 4 -21 6 -6 12 -6 17 3 6 8 4 10 -5 4 -10 -6
-12 -4 -7 8 7 19 2 23 -9 6z"/>
</g>
</svg>
