<svg xmlns="http://www.w3.org/2000/svg" xmlns:xlink="http://www.w3.org/1999/xlink" width="528" zoomAndPan="magnify" viewBox="0 0 396 611.999999" height="816" preserveAspectRatio="xMidYMid meet" version="1.0"><defs><clipPath id="0d608a282e"><path d="M 300.929688 225.703125 L 370.679688 225.703125 L 370.679688 274.453125 L 300.929688 274.453125 Z M 300.929688 225.703125 " clip-rule="nonzero"/></clipPath></defs><g clip-path="url(#0d608a282e)"><path fill="#000000" d="M 362.824219 259.71875 C 362.992188 259.699219 363.160156 259.699219 363.324219 259.699219 C 363.773438 259.644531 364.253906 259.605469 364.683594 259.625 C 364.683594 259.566406 364.703125 259.492188 364.703125 259.457031 C 364.703125 259.457031 364.703125 259.476562 364.703125 259.476562 C 364.703125 259.476562 364.703125 259.457031 364.703125 259.457031 C 364.21875 259.269531 363.734375 259.121094 363.234375 259.046875 C 361.503906 258.75 359.941406 259.53125 358.363281 260.089844 C 357.601562 260.351562 356.78125 260.574219 355.984375 260.445312 C 356.074219 260.238281 356.1875 260.035156 356.28125 259.828125 C 356.410156 259.566406 356.039062 259.34375 355.835938 259.511719 C 355.3125 259.921875 354.683594 260.144531 354.011719 260.164062 C 354.234375 259.847656 354.347656 259.457031 354.308594 259.046875 C 354.328125 259.007812 354.367188 258.953125 354.382812 258.898438 C 354.457031 258.730469 354.273438 258.597656 354.125 258.65625 C 353.84375 258.75 353.601562 258.953125 353.378906 259.140625 C 353.140625 259.324219 352.898438 259.53125 352.65625 259.734375 C 352.152344 260.128906 351.613281 260.480469 351.039062 260.742188 C 350.425781 261.003906 349.773438 261.113281 349.105469 261.097656 C 348.734375 261.097656 348.378906 261.058594 348.007812 261.039062 C 347.820312 261.039062 347.636719 261.019531 347.449219 261.019531 C 347.785156 260.445312 347.894531 259.679688 347.355469 259.214844 C 347.28125 259.140625 347.171875 259.175781 347.117188 259.234375 C 347.042969 259.25 346.984375 259.308594 346.96875 259.402344 C 346.816406 259.960938 346.519531 260.5 346.019531 260.835938 C 345.515625 261.171875 344.847656 261.226562 344.328125 260.929688 C 344.34375 260.890625 344.34375 260.871094 344.34375 260.835938 C 344.457031 260.554688 344.625 260.3125 344.808594 260.070312 C 345.257812 259.53125 345.871094 259.160156 346.445312 258.765625 C 346.578125 258.675781 346.464844 258.433594 346.316406 258.46875 C 345.40625 258.75 344.570312 259.269531 344.03125 260.089844 C 343.917969 260.277344 343.804688 260.480469 343.730469 260.6875 C 343.101562 260.964844 342.488281 261.355469 341.890625 261.691406 C 341.335938 262.007812 340.777344 262.289062 340.199219 262.566406 C 339.847656 262.679688 339.492188 262.773438 339.121094 262.867188 C 337.96875 263.164062 336.78125 263.367188 335.589844 263.460938 C 334.007812 263.59375 332.355469 263.59375 330.757812 263.367188 C 330.609375 263.351562 330.476562 263.332031 330.328125 263.3125 C 329.453125 263.183594 328.507812 262.996094 327.671875 262.679688 C 327.429688 262.585938 327.207031 262.472656 327 262.324219 C 326.722656 262.15625 326.460938 261.953125 326.21875 261.730469 C 325.476562 261.003906 324.902344 260.050781 324.621094 259.046875 C 324.527344 258.878906 324.453125 258.710938 324.378906 258.523438 C 324.511719 258.542969 324.660156 258.523438 324.789062 258.507812 C 324.808594 258.507812 324.808594 258.507812 324.824219 258.488281 C 325.496094 258.355469 326.128906 257.890625 326.425781 257.277344 C 326.574219 256.941406 326.628906 256.585938 326.554688 256.234375 C 326.5 255.992188 326.367188 255.601562 326.128906 255.488281 C 326.109375 255.488281 326.109375 255.46875 326.089844 255.46875 C 326.070312 255.46875 326.054688 255.453125 326.035156 255.453125 C 325.90625 255.414062 325.828125 255.542969 325.90625 255.636719 C 326.164062 256.046875 326.292969 256.53125 326.109375 256.960938 C 325.570312 257.257812 325.050781 257.464844 324.417969 257.480469 C 323.765625 257.5 323.171875 257.3125 322.558594 257.128906 C 322.726562 256.980469 322.894531 256.828125 323.058594 256.679688 C 324.0625 255.824219 325.199219 255.171875 326.519531 254.929688 C 327.855469 254.6875 329.230469 254.667969 330.589844 254.425781 C 331.371094 254.277344 332.132812 254.089844 332.894531 253.867188 C 333.582031 253.664062 334.34375 253.441406 334.957031 253.066406 C 334.996094 253.046875 335.011719 253.011719 334.996094 252.972656 C 334.289062 253.199219 333.582031 253.363281 332.875 253.476562 C 332.875 253.476562 332.855469 253.476562 332.855469 253.476562 C 332.839844 253.476562 332.820312 253.476562 332.800781 253.476562 C 332.300781 253.550781 331.796875 253.605469 331.277344 253.644531 C 330.441406 253.71875 329.585938 253.757812 328.75 253.847656 C 327.910156 253.941406 327.113281 254.089844 326.332031 254.371094 C 326.070312 254.464844 325.828125 254.558594 325.570312 254.667969 C 325.421875 254.707031 325.253906 254.761719 325.105469 254.816406 C 324.4375 255.078125 323.804688 255.46875 323.207031 255.898438 C 322.894531 256.121094 322.59375 256.382812 322.296875 256.644531 C 322.054688 256.847656 321.703125 257.109375 321.574219 257.40625 C 321.277344 258.132812 322.410156 258.28125 322.855469 258.394531 C 322.984375 258.433594 323.132812 258.449219 323.265625 258.46875 C 323.265625 258.488281 323.28125 258.488281 323.28125 258.507812 C 323.691406 259.082031 324.007812 259.699219 324.363281 260.3125 C 324.378906 260.371094 324.417969 260.40625 324.4375 260.445312 C 324.472656 260.519531 324.511719 260.574219 324.546875 260.648438 C 324.230469 260.535156 323.878906 260.445312 323.5625 260.332031 C 323.132812 260.183594 322.726562 260.015625 322.316406 259.828125 C 321.480469 259.457031 320.660156 258.992188 319.9375 258.449219 C 319.210938 257.910156 318.542969 257.257812 318.023438 256.496094 C 317.742188 256.101562 317.519531 255.636719 317.390625 255.171875 C 317.316406 254.929688 317.277344 254.667969 317.277344 254.410156 C 317.277344 254.222656 317.335938 254.035156 317.351562 253.832031 C 317.6875 253.8125 318.039062 253.757812 318.355469 253.664062 C 318.820312 253.53125 319.117188 253.289062 319.210938 252.804688 C 319.25 252.65625 319.25 252.507812 319.25 252.339844 C 319.269531 252.246094 319.25 252.136719 319.210938 252.023438 C 319.15625 251.800781 319.082031 251.59375 318.96875 251.390625 C 318.859375 251.203125 318.691406 251 318.488281 250.867188 C 320.511719 249.9375 322.59375 249.136719 324.789062 248.6875 C 325.570312 248.523438 326.351562 248.429688 327.148438 248.371094 C 327.761719 248.335938 328.359375 248.355469 328.972656 248.335938 C 328.285156 248.203125 327.597656 248.128906 326.871094 248.113281 C 326.574219 248.113281 326.257812 248.113281 325.960938 248.128906 C 325.402344 248.1875 324.824219 248.261719 324.269531 248.355469 C 323.058594 248.558594 321.871094 248.820312 320.699219 249.210938 C 320.363281 249.339844 320.046875 249.492188 319.714844 249.621094 C 318.953125 249.957031 318.191406 250.292969 317.445312 250.644531 C 317.222656 250.738281 317.019531 250.832031 316.796875 250.925781 C 316.777344 250.925781 316.738281 250.925781 316.722656 250.925781 C 316.554688 250.90625 316.40625 250.867188 316.273438 250.757812 C 316.089844 250.609375 316.089844 250.382812 316.144531 250.160156 C 316.183594 250.085938 316.21875 250.011719 316.273438 249.9375 C 316.589844 249.507812 317.09375 249.171875 317.539062 248.914062 C 317.632812 248.855469 317.726562 248.820312 317.800781 248.765625 C 318.003906 248.671875 318.191406 248.597656 318.375 248.503906 C 319.640625 247.945312 320.921875 247.441406 322.261719 247.144531 C 322.410156 247.105469 322.558594 247.085938 322.707031 247.050781 C 322.726562 247.050781 322.742188 247.050781 322.761719 247.050781 C 322.875 247.03125 322.984375 246.996094 323.117188 246.976562 C 325.71875 246.585938 328.339844 246.976562 330.941406 247.179688 C 335.570312 247.535156 340.257812 247.609375 344.867188 247.070312 C 345.125 247.050781 345.386719 247.03125 345.628906 246.996094 C 346.464844 246.917969 347.300781 246.808594 348.136719 246.675781 C 349.828125 246.433594 351.539062 246.175781 353.214844 245.859375 C 354.699219 245.578125 356.09375 245.113281 357.46875 244.480469 C 358.753906 243.882812 360 243.195312 361.28125 242.597656 C 361.503906 242.484375 361.746094 242.394531 361.96875 242.300781 C 362.398438 242.132812 362.84375 242 363.289062 241.871094 C 363.324219 241.851562 363.363281 241.851562 363.402344 241.835938 C 364.664062 241.441406 366.023438 241.21875 367.339844 241.21875 C 368.492188 241.199219 369.574219 241.441406 370.667969 241.667969 C 370.667969 241.554688 370.613281 241.425781 370.464844 241.367188 C 369.574219 241.015625 368.605469 240.828125 367.640625 240.773438 C 366.765625 240.699219 365.871094 240.679688 365 240.734375 C 364.71875 240.753906 364.441406 240.773438 364.164062 240.808594 C 363.921875 240.808594 363.679688 240.847656 363.476562 240.882812 C 363.011719 240.941406 362.5625 241.03125 362.117188 241.144531 C 361.1875 241.386719 360.257812 241.722656 359.367188 242.09375 C 357.972656 242.671875 356.597656 243.34375 355.238281 243.976562 C 354.066406 244.347656 352.914062 244.777344 351.726562 245.09375 C 350.351562 245.464844 348.957031 245.785156 347.5625 246.042969 C 344.71875 246.546875 341.816406 246.789062 338.917969 246.84375 C 338.082031 246.863281 337.226562 246.863281 336.390625 246.84375 C 335.925781 246.34375 335.386719 245.875 334.882812 245.410156 C 334.289062 244.890625 333.695312 244.367188 333.097656 243.863281 C 332.484375 243.378906 331.871094 242.894531 331.238281 242.429688 C 330.996094 242.152344 330.625 241.945312 330.328125 241.722656 C 329.917969 241.425781 329.511719 241.109375 329.101562 240.789062 C 328.320312 240.195312 327.539062 239.597656 326.722656 239.039062 C 325.140625 237.960938 323.394531 237.046875 321.5 236.691406 C 321.199219 236.636719 320.921875 236.601562 320.625 236.582031 C 320.511719 236.523438 320.382812 236.449219 320.289062 236.394531 C 319.917969 236.152344 319.546875 235.875 319.210938 235.59375 C 318.488281 234.960938 317.835938 234.253906 317.242188 233.507812 C 316.050781 232.035156 315.027344 230.433594 314.191406 228.738281 C 313.710938 227.769531 313.335938 226.746094 312.835938 225.796875 C 312.796875 225.703125 312.648438 225.738281 312.667969 225.851562 C 312.816406 226.800781 313.1875 227.734375 313.578125 228.609375 C 313.988281 229.519531 314.453125 230.394531 314.953125 231.234375 C 315.976562 232.894531 317.167969 234.476562 318.597656 235.796875 C 318.914062 236.078125 319.230469 236.359375 319.566406 236.601562 C 319.398438 236.617188 319.210938 236.636719 319.042969 236.675781 C 317.78125 236.636719 316.515625 236.75 315.328125 237.046875 C 315.253906 237.066406 315.253906 237.175781 315.328125 237.195312 C 316.90625 237.234375 318.488281 237.085938 320.066406 237.269531 C 321.722656 237.476562 323.207031 238.015625 324.660156 238.816406 C 327.355469 240.308594 329.9375 242.058594 332.355469 243.976562 C 333.023438 244.496094 333.675781 245.039062 334.324219 245.578125 C 334.808594 245.988281 335.273438 246.417969 335.738281 246.828125 C 333.917969 246.789062 332.09375 246.695312 330.273438 246.546875 C 328.730469 246.433594 327.207031 246.25 325.664062 246.230469 C 324.675781 246.230469 323.710938 246.304688 322.742188 246.492188 C 322.652344 246.453125 322.558594 246.417969 322.464844 246.378906 C 322.203125 246.269531 321.945312 246.117188 321.738281 245.933594 C 321.535156 245.746094 321.351562 245.542969 321.199219 245.300781 C 321.050781 245.058594 320.960938 244.796875 320.792969 244.554688 C 320.71875 244.441406 320.53125 244.515625 320.511719 244.648438 C 320.4375 245.261719 320.941406 245.914062 321.367188 246.304688 C 321.5 246.417969 321.664062 246.566406 321.871094 246.695312 C 321.683594 246.734375 321.515625 246.789062 321.332031 246.84375 C 319.863281 247.273438 318.339844 247.851562 317.019531 248.652344 C 316.871094 248.746094 316.703125 248.855469 316.570312 248.96875 C 316.515625 249.007812 316.441406 249.0625 316.386719 249.097656 C 316.183594 249.265625 315.957031 249.453125 315.808594 249.675781 C 315.808594 249.65625 315.792969 249.640625 315.753906 249.640625 C 315.140625 249.75 314.527344 250.476562 314.695312 251.109375 C 314.769531 251.371094 314.972656 251.558594 315.234375 251.652344 C 314.898438 251.894531 314.640625 252.230469 314.507812 252.621094 C 314.507812 253.476562 315.808594 253.757812 316.515625 253.792969 C 316.535156 254.351562 316.664062 254.929688 316.757812 255.46875 C 316.796875 255.636719 316.832031 255.804688 316.871094 255.972656 C 316.535156 255.9375 316.125 255.992188 315.882812 256.046875 C 315.34375 256.140625 314.863281 256.382812 314.488281 256.773438 C 314.433594 256.828125 314.433594 256.886719 314.472656 256.941406 C 315.253906 256.53125 316.125 256.234375 316.980469 256.382812 C 317 256.4375 317.019531 256.476562 317.019531 256.511719 C 317.019531 256.53125 317.035156 256.550781 317.035156 256.570312 C 317.035156 256.605469 317.054688 256.625 317.074219 256.664062 C 317.09375 256.738281 317.128906 256.792969 317.167969 256.847656 C 317.1875 256.886719 317.203125 256.921875 317.222656 256.960938 C 317.652344 257.835938 318.300781 258.597656 319.0625 259.195312 C 319.898438 259.867188 320.886719 260.332031 321.890625 260.6875 C 322.167969 260.777344 322.429688 260.855469 322.707031 260.945312 C 322.667969 260.945312 322.613281 260.964844 322.578125 260.964844 C 321.90625 261.097656 321.183594 261.414062 320.828125 262.027344 C 321.035156 261.878906 321.257812 261.765625 321.460938 261.671875 C 321.945312 261.449219 322.464844 261.28125 322.984375 261.226562 C 323.523438 261.152344 324.101562 261.152344 324.640625 261.300781 C 324.789062 261.339844 324.917969 261.394531 325.03125 261.46875 C 325.105469 261.597656 325.199219 261.710938 325.289062 261.839844 C 325.570312 262.195312 325.886719 262.492188 326.238281 262.753906 C 326.332031 262.808594 326.425781 262.882812 326.535156 262.957031 C 326.796875 263.164062 327.074219 263.332031 327.355469 263.5 C 327.113281 263.554688 326.871094 263.648438 326.648438 263.742188 C 326.054688 263.984375 325.199219 264.449219 325.125 265.15625 C 325.125 265.175781 325.125 265.175781 325.125 265.175781 C 325.179688 265.101562 325.234375 265.007812 325.308594 264.933594 C 325.421875 264.785156 325.570312 264.636719 325.738281 264.523438 C 326.351562 264.039062 327.132812 263.757812 327.894531 263.871094 C 327.910156 263.871094 327.929688 263.871094 327.929688 263.871094 C 327.96875 263.871094 327.988281 263.871094 328.023438 263.871094 C 328.078125 263.890625 328.136719 263.925781 328.210938 263.945312 C 328.246094 263.964844 328.285156 263.984375 328.320312 263.984375 C 328.507812 264.039062 328.691406 264.113281 328.878906 264.207031 C 329.230469 264.320312 329.585938 264.429688 329.9375 264.503906 C 330.199219 264.5625 330.441406 264.617188 330.699219 264.652344 C 331.238281 264.859375 331.742188 265.101562 332.226562 265.398438 C 332.929688 265.847656 333.65625 266.460938 333.878906 267.300781 C 334.082031 268.117188 333.75 268.976562 332.914062 269.234375 C 332.226562 269.460938 331.445312 269.3125 330.757812 269.179688 C 327.464844 268.566406 324.25 267.484375 321.277344 265.957031 C 318.300781 264.449219 315.550781 262.457031 313.261719 260.015625 C 310.957031 257.59375 309.285156 254.726562 307.628906 251.835938 C 306.71875 250.253906 305.808594 248.671875 304.765625 247.160156 C 304.246094 246.398438 303.707031 245.652344 303.09375 244.945312 C 302.5 244.253906 301.90625 243.546875 301.140625 243.0625 C 301.050781 243.007812 300.9375 243.121094 301.011719 243.210938 C 301.515625 243.902344 302.128906 244.515625 302.667969 245.1875 C 303.207031 245.859375 303.726562 246.546875 304.210938 247.253906 C 305.066406 248.503906 305.828125 249.789062 306.570312 251.09375 C 307.074219 252.433594 307.761719 253.683594 308.484375 254.910156 C 309.378906 256.457031 310.269531 258.003906 311.367188 259.417969 C 313.261719 261.878906 315.71875 263.890625 318.414062 265.398438 C 319.957031 266.253906 321.589844 267.058594 323.28125 267.542969 C 323.300781 267.542969 323.320312 267.542969 323.359375 267.542969 C 325.867188 268.601562 328.527344 269.402344 331.203125 269.8125 C 331.925781 269.925781 332.746094 269.960938 333.414062 269.628906 C 334.121094 269.273438 334.511719 268.546875 334.492188 267.785156 C 334.472656 266.421875 333.414062 265.453125 332.261719 264.804688 C 333.230469 264.839844 334.195312 264.804688 335.144531 264.691406 C 335.179688 264.691406 335.238281 264.671875 335.273438 264.671875 C 335.851562 265.027344 336.5 265.195312 337.167969 265.363281 C 336.964844 265.4375 336.78125 265.527344 336.648438 265.605469 C 336.167969 265.882812 335.777344 266.273438 335.535156 266.757812 C 335.515625 266.796875 335.535156 266.816406 335.550781 266.832031 C 335.886719 266.273438 336.480469 265.882812 337.078125 265.660156 C 337.207031 265.605469 337.335938 265.566406 337.484375 265.546875 C 337.894531 265.4375 338.339844 265.511719 338.769531 265.621094 C 339.046875 265.695312 339.328125 265.808594 339.605469 265.9375 C 340.105469 266.144531 340.589844 266.421875 341.019531 266.722656 C 341.148438 266.796875 341.257812 266.890625 341.371094 267 C 341.855469 267.316406 342.246094 267.785156 342.542969 268.25 C 342.691406 268.472656 342.820312 268.734375 342.914062 268.976562 C 343.175781 269.554688 343.230469 270.167969 342.878906 270.78125 C 342.523438 271.378906 341.875 271.507812 341.222656 271.472656 C 340.496094 271.414062 339.753906 271.285156 339.046875 271.136719 C 338.191406 270.96875 337.335938 270.746094 336.480469 270.503906 C 335.644531 270.261719 334.828125 269.960938 333.992188 269.757812 C 333.933594 269.738281 333.898438 269.851562 333.953125 269.871094 C 334.660156 270.296875 335.441406 270.578125 336.222656 270.839844 C 337.019531 271.097656 337.820312 271.324219 338.636719 271.527344 C 339.4375 271.714844 340.253906 271.898438 341.074219 271.976562 C 341.6875 272.03125 342.339844 271.976562 342.839844 271.601562 C 343.265625 272.160156 343.84375 272.609375 344.402344 273.019531 C 345.015625 273.464844 345.683594 273.894531 346.425781 274.136719 C 347.097656 274.359375 347.839844 274.453125 348.492188 274.136719 C 349.125 273.835938 349.550781 273.203125 349.738281 272.535156 C 350.164062 271.0625 349.644531 269.496094 348.734375 268.34375 C 348.046875 267.464844 347.132812 266.796875 346.203125 266.199219 C 346.742188 266.386719 347.300781 266.554688 347.878906 266.683594 C 348.511719 266.832031 349.214844 267 349.886719 266.980469 C 349.976562 266.980469 350.070312 266.964844 350.183594 266.964844 C 350.257812 266.945312 350.332031 266.945312 350.40625 266.925781 C 350.441406 266.925781 350.460938 266.925781 350.5 266.925781 C 350.648438 266.890625 350.816406 266.851562 350.964844 266.796875 C 351.039062 266.757812 351.113281 266.738281 351.167969 266.703125 C 351.445312 266.515625 351.632812 266.253906 351.78125 265.9375 C 352.226562 265.027344 352.226562 264 351.6875 263.125 C 351.316406 262.53125 350.683594 261.953125 349.976562 261.597656 C 350.40625 261.542969 350.832031 261.449219 351.242188 261.28125 C 351.855469 261.039062 352.414062 260.667969 352.953125 260.277344 C 353.175781 260.109375 353.378906 259.941406 353.585938 259.753906 C 353.492188 259.886719 353.378906 259.996094 353.25 260.109375 C 353.046875 260.257812 353.175781 260.554688 353.398438 260.59375 C 354.066406 260.703125 354.738281 260.613281 355.351562 260.351562 L 355.296875 260.460938 C 355.238281 260.59375 355.3125 260.796875 355.460938 260.835938 C 357.042969 261.261719 358.546875 260.648438 360.015625 260.128906 C 360.777344 259.847656 361.597656 259.585938 362.433594 259.625 C 362.5625 259.679688 362.695312 259.699219 362.824219 259.71875 Z M 315.066406 251.054688 C 314.621094 250.535156 315.382812 250.125 315.753906 249.84375 C 315.753906 249.84375 315.753906 249.863281 315.734375 249.863281 C 315.660156 250.066406 315.605469 250.273438 315.605469 250.515625 C 315.605469 250.792969 315.699219 251.035156 315.773438 251.277344 C 315.511719 251.296875 315.269531 251.296875 315.066406 251.054688 Z M 316.3125 252.898438 C 316.257812 252.898438 316.183594 252.878906 316.089844 252.863281 C 315.976562 252.863281 315.847656 252.84375 315.753906 252.804688 C 315.605469 252.75 315.511719 252.65625 315.476562 252.5625 C 315.457031 252.527344 315.457031 252.488281 315.457031 252.453125 C 315.457031 252.453125 315.4375 252.433594 315.4375 252.433594 C 315.4375 252.414062 315.457031 252.414062 315.476562 252.394531 C 315.492188 252.320312 315.53125 252.230469 315.605469 252.152344 C 315.828125 251.910156 316.183594 251.761719 316.496094 251.652344 C 316.664062 251.578125 316.851562 251.519531 317.035156 251.484375 C 317.390625 251.371094 317.800781 251.296875 318.171875 251.390625 C 318.746094 251.539062 318.859375 252.191406 318.375 252.546875 C 317.816406 252.898438 316.980469 252.9375 316.3125 252.898438 Z M 346.242188 266.722656 C 346.519531 266.90625 346.78125 267.113281 347.003906 267.355469 C 347.117188 267.449219 347.226562 267.558594 347.339844 267.671875 C 347.523438 267.859375 347.691406 268.0625 347.859375 268.269531 C 348.734375 269.160156 349.382812 270.296875 349.363281 271.566406 C 349.363281 271.75 349.347656 271.957031 349.308594 272.160156 C 349.273438 272.253906 349.253906 272.347656 349.214844 272.441406 C 349.066406 272.738281 348.84375 272.980469 348.585938 273.183594 C 347.953125 273.652344 347.152344 273.558594 346.425781 273.335938 C 345.796875 273.148438 345.199219 272.832031 344.679688 272.421875 C 344.179688 272.011719 343.84375 271.507812 343.433594 271.023438 C 343.882812 270.167969 343.65625 269.03125 343.117188 268.230469 C 342.710938 267.617188 342.113281 267.113281 341.519531 266.664062 C 340.90625 266.199219 340.21875 265.769531 339.492188 265.492188 C 338.433594 265.101562 337.300781 264.953125 336.242188 264.636719 C 337.46875 264.429688 338.65625 264.09375 339.808594 263.648438 C 340.050781 263.554688 340.292969 263.460938 340.535156 263.351562 C 341.074219 263.554688 341.574219 263.796875 342.039062 264.152344 C 342.5625 264.5625 343.0625 264.953125 343.601562 265.324219 C 343.507812 265.34375 343.398438 265.363281 343.304688 265.378906 C 342.800781 265.511719 342.300781 265.695312 341.890625 266.011719 C 342.28125 265.769531 342.914062 265.585938 343.082031 265.546875 C 343.136719 265.527344 343.191406 265.527344 343.25 265.527344 C 344.363281 265.324219 345.441406 266.050781 346.242188 266.722656 Z M 350.238281 262.511719 C 350.683594 262.808594 351.074219 263.199219 351.316406 263.667969 C 351.539062 264.09375 351.613281 264.746094 351.484375 265.304688 C 351.390625 265.695312 351.167969 265.957031 350.890625 266.125 C 350.742188 266.238281 350.574219 266.332031 350.367188 266.386719 C 349.53125 266.628906 348.585938 266.3125 347.765625 266.089844 C 346.667969 265.769531 345.609375 265.34375 344.585938 264.859375 C 344.328125 264.746094 344.085938 264.617188 343.863281 264.46875 C 343.601562 264.335938 343.304688 264.1875 343.082031 263.984375 C 342.878906 263.851562 342.671875 263.722656 342.488281 263.574219 C 342.152344 263.332031 341.855469 263.070312 341.519531 262.828125 C 341.722656 262.714844 341.949219 262.605469 342.152344 262.492188 C 342.617188 262.230469 343.117188 261.953125 343.566406 261.617188 C 343.640625 262.007812 343.957031 262.195312 344.34375 262.289062 C 345.257812 262.492188 346.351562 262.15625 347.023438 261.503906 C 347.042969 261.488281 347.058594 261.46875 347.097656 261.429688 C 347.394531 261.503906 347.710938 261.523438 348.007812 261.5625 C 348.34375 261.597656 348.660156 261.636719 348.992188 261.65625 C 349.382812 262.007812 349.847656 262.230469 350.238281 262.511719 Z M 350.238281 262.511719 " fill-opacity="1" fill-rule="nonzero"/></g><path fill="#000000" d="M 339.085938 234.363281 C 339.066406 234.363281 339.066406 234.382812 339.085938 234.363281 C 339.085938 234.382812 339.085938 234.363281 339.085938 234.363281 Z M 339.085938 234.363281 " fill-opacity="1" fill-rule="nonzero"/></svg>