<svg xmlns="http://www.w3.org/2000/svg" xmlns:xlink="http://www.w3.org/1999/xlink" width="528" zoomAndPan="magnify" viewBox="0 0 396 611.999999" height="816" preserveAspectRatio="xMidYMid meet" version="1.0"><defs><clipPath id="9842a474dd"><path d="M 282 371 L 304 371 L 304 385.398438 L 282 385.398438 Z M 282 371 " clip-rule="nonzero"/></clipPath><clipPath id="57a5915646"><path d="M 323 371 L 344 371 L 344 385.398438 L 323 385.398438 Z M 323 371 " clip-rule="nonzero"/></clipPath></defs><path fill="#000000" d="M 330.871094 227.039062 C 324.375 224.070312 317.316406 222.527344 310.175781 222.378906 C 303.074219 222.234375 295.921875 223.445312 289.25 225.875 C 282.554688 228.316406 276.3125 231.964844 271.007812 236.730469 C 265.402344 241.769531 261.066406 248.035156 258.152344 254.972656 C 255.089844 262.265625 253.65625 270.238281 253.816406 278.140625 C 253.980469 286.058594 255.75 293.929688 259.101562 301.113281 C 262.414062 308.207031 267.339844 314.566406 273.253906 319.691406 C 279.195312 324.84375 286.144531 328.816406 293.640625 331.222656 C 301.742188 333.820312 310.402344 334.472656 318.824219 333.335938 C 327.226562 332.195312 335.433594 329.246094 342.53125 324.589844 C 348.648438 320.574219 353.863281 315.300781 357.972656 309.261719 C 362.0625 303.25 365.042969 296.445312 366.714844 289.371094 C 368.394531 282.265625 368.75 274.875 367.628906 267.652344 C 366.503906 260.398438 363.75 253.4375 359.722656 247.300781 C 355.65625 241.105469 350.371094 235.753906 344.292969 231.511719 C 338.242188 227.285156 331.34375 224.175781 324.128906 222.574219 C 316.828125 220.960938 309.289062 220.953125 301.980469 222.503906 C 294.703125 224.046875 287.761719 227.105469 281.570312 231.203125 C 275.277344 235.363281 269.695312 240.578125 265.046875 246.511719 C 260.210938 252.691406 256.394531 259.578125 253.753906 266.96875 C 250.65625 275.636719 249.136719 285.011719 250.054688 294.203125 C 250.859375 302.296875 253.589844 310.082031 257.976562 316.933594 C 262.207031 323.539062 267.855469 329.226562 274.449219 333.492188 C 281.683594 338.175781 290.007812 341.003906 298.542969 342.066406 C 306.976562 343.117188 315.707031 342.382812 323.820312 339.84375 C 330.855469 337.640625 337.386719 334.070312 343.164062 329.519531 C 348.949219 324.964844 353.933594 319.386719 357.871094 313.167969 C 361.757812 307.03125 364.632812 300.207031 366.160156 293.105469 C 367.707031 285.890625 367.84375 278.453125 366.492188 271.199219 C 365.164062 264.085938 362.425781 257.230469 358.644531 251.066406 C 354.855469 244.882812 349.996094 239.324219 344.335938 234.78125 C 338.667969 230.234375 332.238281 226.664062 325.296875 224.46875 C 317.722656 222.074219 309.613281 221.429688 301.738281 222.398438 C 293.425781 223.421875 285.34375 226.140625 278.167969 230.46875 C 271.132812 234.707031 265.121094 240.464844 260.488281 247.230469 C 255.929688 253.886719 252.722656 261.519531 251.210938 269.441406 C 249.785156 276.90625 249.878906 284.558594 251.558594 291.972656 C 253.160156 299.03125 256.136719 305.789062 260.128906 311.824219 C 264.171875 317.933594 269.230469 323.324219 275.070312 327.753906 C 280.882812 332.160156 287.496094 335.550781 294.519531 337.554688 C 301.503906 339.546875 308.878906 340.109375 316.089844 339.347656 C 323.351562 338.585938 330.421875 336.554688 337.03125 333.457031 C 343.613281 330.367188 349.703125 326.199219 354.957031 321.175781 C 360.199219 316.167969 364.632812 310.261719 367.820312 303.746094 C 371.121094 297 373.078125 289.675781 373.769531 282.207031 C 374.453125 274.75 373.828125 267.164062 372.003906 259.902344 C 370.1875 252.671875 367.148438 245.703125 362.953125 239.53125 C 358.734375 233.320312 353.378906 227.960938 347.128906 223.789062 C 340.9375 219.664062 333.941406 216.714844 326.695312 215.035156 C 319.4375 213.355469 311.875 212.902344 304.476562 213.820312 C 297.03125 214.746094 289.769531 216.996094 283.21875 220.679688 C 276.078125 224.695312 269.832031 230.210938 264.617188 236.496094 C 259.324219 242.875 254.949219 250.035156 251.570312 257.597656 C 248.046875 265.480469 245.597656 273.832031 244.609375 282.417969 C 243.640625 290.773438 244.144531 299.386719 246.65625 307.449219 C 248.972656 314.886719 252.988281 321.683594 258.394531 327.300781 C 263.5 332.609375 269.71875 336.828125 276.421875 339.859375 C 283.277344 342.957031 290.617188 344.875 298.105469 345.589844 C 305.585938 346.300781 313.164062 345.699219 320.46875 343.976562 C 327.796875 342.242188 334.875 339.359375 341.347656 335.515625 C 347.800781 331.6875 353.707031 326.882812 358.6875 321.273438 C 363.699219 315.621094 367.769531 309.171875 370.585938 302.160156 C 373.304688 295.378906 374.742188 288.097656 374.988281 280.804688 C 375.234375 273.445312 374.257812 266.015625 372.113281 258.96875 C 369.984375 251.996094 366.714844 245.339844 362.324219 239.511719 C 357.78125 233.472656 352.113281 228.371094 345.582031 224.550781 C 338.863281 220.621094 331.351562 218.023438 323.652344 216.882812 C 315.902344 215.734375 307.964844 215.984375 300.332031 217.785156 C 292.878906 219.539062 285.820312 222.8125 279.667969 227.359375 C 273.574219 231.851562 268.351562 237.460938 264.261719 243.824219 C 260.195312 250.148438 257.25 257.238281 255.761719 264.609375 C 254.277344 271.964844 254.28125 279.527344 255.777344 286.882812 C 257.246094 294.121094 260.128906 301.089844 264.109375 307.308594 C 268.105469 313.546875 273.214844 319.046875 279.203125 323.417969 C 285.105469 327.71875 291.90625 330.851562 299.070312 332.335938 C 306 333.765625 313.167969 333.722656 320.109375 332.402344 C 327 331.089844 333.679688 328.484375 339.628906 324.761719 C 345.574219 321.046875 350.804688 316.203125 354.804688 310.4375 C 359.484375 303.695312 362.226562 295.761719 363.289062 287.65625 C 364.425781 278.984375 363.609375 270.066406 361.195312 261.667969 C 358.835938 253.476562 354.953125 245.742188 350.121094 238.730469 C 345.636719 232.21875 340.34375 226.289062 334.542969 220.917969 C 333.515625 219.964844 331.964844 221.507812 333 222.464844 C 339.074219 228.085938 344.605469 234.320312 349.175781 241.226562 C 353.769531 248.160156 357.40625 255.75 359.515625 263.808594 C 361.648438 271.964844 362.25 280.613281 360.910156 288.957031 C 359.671875 296.660156 356.808594 304.078125 352.171875 310.382812 C 348.207031 315.773438 343.027344 320.253906 337.265625 323.644531 C 331.394531 327.101562 324.886719 329.433594 318.160156 330.539062 C 311.535156 331.628906 304.65625 331.460938 298.121094 329.886719 C 291.253906 328.234375 284.808594 325.027344 279.222656 320.722656 C 273.578125 316.367188 268.800781 310.898438 265.125 304.800781 C 261.433594 298.679688 258.855469 291.910156 257.613281 284.871094 C 256.363281 277.804688 256.605469 270.527344 258.226562 263.542969 C 259.878906 256.449219 262.882812 249.714844 266.96875 243.683594 C 271.042969 237.664062 276.234375 232.34375 282.21875 228.203125 C 288.335938 223.972656 295.226562 221.035156 302.511719 219.535156 C 309.855469 218.023438 317.519531 217.96875 324.894531 219.285156 C 332.320312 220.609375 339.484375 223.289062 345.882812 227.28125 C 352.019531 231.113281 357.34375 236.171875 361.511719 242.082031 C 365.578125 247.855469 368.578125 254.328125 370.460938 261.121094 C 372.355469 267.953125 373.132812 275.074219 372.746094 282.152344 C 372.363281 289.210938 370.796875 296.257812 367.988281 302.757812 C 365.117188 309.402344 361.070312 315.511719 356.148438 320.824219 C 351.210938 326.15625 345.445312 330.683594 339.132812 334.28125 C 332.800781 337.890625 325.941406 340.546875 318.824219 342.117188 C 311.710938 343.683594 304.371094 344.101562 297.128906 343.304688 C 289.996094 342.523438 282.9375 340.554688 276.457031 337.480469 C 270.03125 334.429688 264.121094 330.285156 259.277344 325.058594 C 254.152344 319.527344 250.4375 312.847656 248.382812 305.597656 C 246.144531 297.6875 245.847656 289.308594 246.945312 281.1875 C 248.058594 272.953125 250.554688 264.886719 254.066406 257.363281 C 257.449219 250.117188 261.71875 243.210938 266.929688 237.128906 C 272.082031 231.109375 278.183594 225.859375 285.183594 222.089844 C 291.464844 218.707031 298.453125 216.632812 305.546875 215.882812 C 312.707031 215.121094 319.984375 215.625 326.972656 217.347656 C 334 219.074219 340.707031 222.015625 346.675781 226.113281 C 352.605469 230.183594 357.675781 235.4375 361.613281 241.449219 C 365.574219 247.492188 368.410156 254.222656 370.085938 261.246094 C 371.761719 268.285156 372.257812 275.59375 371.523438 282.792969 C 370.800781 289.941406 368.804688 297.003906 365.550781 303.414062 C 362.371094 309.671875 358.050781 315.296875 352.925781 320.09375 C 347.796875 324.894531 341.878906 328.835938 335.492188 331.773438 C 329.183594 334.675781 322.351562 336.582031 315.429688 337.234375 C 308.414062 337.894531 301.308594 337.296875 294.550781 335.289062 C 287.820312 333.292969 281.503906 329.96875 275.945312 325.695312 C 270.394531 321.425781 265.570312 316.1875 261.753906 310.324219 C 257.917969 304.425781 255.09375 297.894531 253.585938 291.023438 C 252.019531 283.910156 251.992188 276.527344 253.441406 269.394531 C 254.996094 261.71875 258.144531 254.410156 262.617188 247.984375 C 267.128906 241.496094 273.019531 236.019531 279.835938 232.015625 C 286.804688 227.921875 294.679688 225.320312 302.722656 224.46875 C 310.335938 223.664062 318.070312 224.375 325.351562 226.777344 C 331.945312 228.953125 338.109375 232.449219 343.457031 236.867188 C 348.867188 241.335938 353.503906 246.71875 357.105469 252.738281 C 360.714844 258.769531 363.269531 265.414062 364.488281 272.339844 C 365.699219 279.238281 365.457031 286.355469 363.90625 293.179688 C 362.339844 300.070312 359.503906 306.625 355.671875 312.554688 C 351.816406 318.527344 346.9375 323.855469 341.316406 328.214844 C 335.757812 332.523438 329.425781 335.875 322.6875 337.910156 C 314.78125 340.292969 306.335938 340.925781 298.152344 339.835938 C 289.933594 338.742188 281.945312 335.859375 275.035156 331.269531 C 268.722656 327.082031 263.339844 321.488281 259.371094 315.046875 C 255.238281 308.335938 252.707031 300.742188 252.125 292.875 C 251.460938 283.910156 253.097656 274.902344 256.238281 266.515625 C 258.847656 259.546875 262.601562 252.984375 267.277344 247.195312 C 271.871094 241.503906 277.332031 236.492188 283.496094 232.546875 C 289.554688 228.675781 296.261719 225.839844 303.328125 224.449219 C 310.324219 223.074219 317.554688 223.226562 324.488281 224.898438 C 331.449219 226.574219 338.019531 229.675781 343.828125 233.84375 C 349.582031 237.980469 354.578125 243.226562 358.359375 249.214844 C 362.148438 255.222656 364.65625 261.953125 365.636719 268.988281 C 366.597656 275.886719 366.089844 282.980469 364.378906 289.722656 C 362.640625 296.574219 359.65625 303.082031 355.59375 308.867188 C 351.582031 314.582031 346.464844 319.5625 340.542969 323.277344 C 333.539062 327.664062 325.507812 330.421875 317.296875 331.34375 C 309.167969 332.25 300.886719 331.421875 293.144531 328.757812 C 285.972656 326.292969 279.316406 322.292969 273.71875 317.1875 C 268.101562 312.066406 263.527344 305.839844 260.476562 298.875 C 257.425781 291.914062 255.957031 284.269531 255.992188 276.683594 C 256.027344 269.078125 257.582031 261.421875 260.730469 254.484375 C 263.707031 247.921875 268.042969 242.097656 273.53125 237.414062 C 278.707031 232.996094 284.800781 229.648438 291.246094 227.484375 C 297.746094 225.300781 304.621094 224.296875 311.480469 224.605469 C 317.769531 224.882812 324.035156 226.304688 329.769531 228.925781 C 330.304688 229.171875 330.945312 229.078125 331.265625 228.535156 C 331.539062 228.0625 331.410156 227.289062 330.871094 227.039062 " fill-opacity="1" fill-rule="nonzero"/><path fill="#000000" d="M 289.316406 301.085938 C 296.644531 310.199219 309.734375 311.953125 320.304688 308.164062 C 323.65625 306.964844 326.800781 305.257812 329.636719 303.105469 C 330.105469 302.75 330.355469 302.164062 330.03125 301.613281 C 329.757812 301.152344 329.007812 300.863281 328.535156 301.222656 C 319.828125 307.828125 307.332031 310.386719 297.375 304.984375 C 294.855469 303.613281 292.65625 301.777344 290.859375 299.542969 C 290.492188 299.082031 289.699219 299.15625 289.316406 299.542969 C 288.859375 299.996094 288.945312 300.625 289.316406 301.085938 " fill-opacity="1" fill-rule="nonzero"/><path fill="#000000" d="M 323.148438 277.261719 C 323.828125 273.574219 326.492188 270.367188 330 268.996094 C 333.585938 267.59375 337.644531 268.363281 340.585938 270.824219 C 342.277344 272.234375 343.546875 274.0625 344.148438 276.183594 C 344.527344 277.53125 346.636719 276.957031 346.253906 275.601562 C 345.007812 271.210938 341.320312 267.707031 336.921875 266.523438 C 332.464844 265.320312 327.738281 266.824219 324.539062 270.089844 C 322.769531 271.890625 321.5 274.195312 321.039062 276.679688 C 320.785156 278.054688 322.890625 278.644531 323.148438 277.261719 " fill-opacity="1" fill-rule="nonzero"/><path fill="#000000" d="M 297.246094 276.613281 C 295.957031 272.167969 292.476562 268.601562 288.15625 266.996094 C 283.859375 265.394531 278.941406 266.195312 275.222656 268.824219 C 273.085938 270.332031 271.328125 272.347656 270.28125 274.753906 C 270.046875 275.292969 270.121094 275.921875 270.675781 276.242188 C 271.136719 276.515625 271.933594 276.394531 272.167969 275.855469 C 273.761719 272.195312 277.074219 269.507812 280.960938 268.621094 C 284.800781 267.746094 288.824219 269.003906 291.683594 271.660156 C 293.308594 273.171875 294.519531 275.0625 295.136719 277.195312 C 295.527344 278.542969 297.636719 277.96875 297.246094 276.613281 " fill-opacity="1" fill-rule="nonzero"/><path fill="#000000" d="M 295.050781 343.273438 C 296.210938 351.542969 297.367188 359.8125 298.527344 368.082031 C 298.851562 370.402344 299.175781 372.726562 299.503906 375.050781 C 299.566406 375.5 299.960938 375.886719 300.59375 375.886719 C 301.136719 375.886719 301.75 375.5 301.6875 375.050781 C 300.527344 366.78125 299.371094 358.511719 298.214844 350.242188 C 297.886719 347.921875 297.5625 345.597656 297.238281 343.273438 C 297.175781 342.824219 296.777344 342.4375 296.144531 342.4375 C 295.601562 342.4375 294.988281 342.820312 295.050781 343.273438 " fill-opacity="1" fill-rule="nonzero"/><path fill="#000000" d="M 325.796875 341.59375 C 325.214844 350.703125 324.632812 359.8125 324.050781 368.921875 C 323.886719 371.523438 323.71875 374.125 323.554688 376.730469 C 323.484375 377.804688 325.671875 377.800781 325.738281 376.730469 C 326.320312 367.621094 326.902344 358.511719 327.484375 349.402344 C 327.648438 346.800781 327.816406 344.195312 327.980469 341.59375 C 328.050781 340.519531 325.867188 340.523438 325.796875 341.59375 " fill-opacity="1" fill-rule="nonzero"/><g clip-path="url(#9842a474dd)"><path fill="#000000" d="M 282.882812 376.226562 C 281.863281 379.234375 284.042969 381.789062 286.546875 383.15625 C 289.492188 384.757812 293.089844 385.390625 296.40625 384.921875 C 299.617188 384.464844 303.367188 382.121094 303.046875 378.4375 C 302.71875 374.644531 298.84375 372.046875 295.355469 371.46875 C 292.953125 371.070312 290.320312 371.316406 288 372.050781 C 285.8125 372.746094 283.730469 373.992188 282.882812 376.226562 C 282.675781 376.777344 283.113281 377.421875 283.648438 377.566406 C 284.261719 377.734375 284.78125 377.359375 284.988281 376.804688 C 285.5 375.457031 287.03125 374.683594 288.308594 374.246094 C 290.054688 373.648438 291.933594 373.414062 293.777344 373.480469 C 296.488281 373.578125 299.953125 375.128906 300.753906 377.945312 C 301.070312 379.050781 300.746094 380.148438 299.851562 381.035156 C 298.878906 381.996094 297.742188 382.460938 296.441406 382.714844 C 293.914062 383.207031 290.980469 382.761719 288.589844 381.734375 C 287.402344 381.21875 286.21875 380.503906 285.476562 379.5625 C 285.140625 379.132812 284.96875 378.765625 284.84375 378.242188 C 284.8125 378.117188 284.792969 377.90625 284.808594 377.578125 C 284.816406 377.417969 284.882812 377.125 284.988281 376.804688 C 285.441406 375.472656 283.332031 374.898438 282.882812 376.226562 " fill-opacity="1" fill-rule="nonzero"/></g><g clip-path="url(#57a5915646)"><path fill="#000000" d="M 323.6875 376.226562 C 322.667969 379.234375 324.847656 381.789062 327.355469 383.15625 C 330.300781 384.757812 333.894531 385.390625 337.210938 384.921875 C 340.421875 384.464844 344.171875 382.121094 343.855469 378.4375 C 343.527344 374.644531 339.648438 372.046875 336.164062 371.46875 C 333.757812 371.070312 331.125 371.316406 328.804688 372.050781 C 326.617188 372.746094 324.535156 373.992188 323.6875 376.226562 C 323.480469 376.777344 323.921875 377.421875 324.453125 377.566406 C 325.066406 377.734375 325.585938 377.359375 325.796875 376.804688 C 326.304688 375.457031 327.835938 374.683594 329.113281 374.246094 C 330.863281 373.648438 332.742188 373.414062 334.582031 373.480469 C 337.292969 373.578125 340.761719 375.128906 341.5625 377.945312 C 341.875 379.050781 341.550781 380.148438 340.65625 381.035156 C 339.6875 381.996094 338.546875 382.460938 337.246094 382.714844 C 334.71875 383.207031 331.785156 382.761719 329.398438 381.734375 C 328.207031 381.21875 327.023438 380.503906 326.28125 379.5625 C 325.945312 379.132812 325.773438 378.765625 325.648438 378.242188 C 325.617188 378.117188 325.597656 377.90625 325.613281 377.578125 C 325.621094 377.417969 325.6875 377.125 325.796875 376.804688 C 326.25 375.472656 324.140625 374.898438 323.6875 376.226562 " fill-opacity="1" fill-rule="nonzero"/></g><path fill="#000000" d="M 250.003906 284.648438 C 240.15625 289.175781 228.824219 290.4375 218.199219 288.316406 C 215.164062 287.707031 212.191406 286.832031 209.3125 285.695312 C 208.765625 285.480469 208.113281 285.933594 207.96875 286.460938 C 207.796875 287.078125 208.179688 287.585938 208.730469 287.800781 C 219.285156 291.957031 231.148438 292.585938 242.121094 289.75 C 245.207031 288.953125 248.210938 287.863281 251.109375 286.53125 C 251.644531 286.285156 251.777344 285.511719 251.5 285.039062 C 251.175781 284.492188 250.542969 284.402344 250.003906 284.648438 " fill-opacity="1" fill-rule="nonzero"/><path fill="#000000" d="M 190.046875 282.964844 C 189.027344 285.972656 191.207031 288.53125 193.714844 289.894531 C 196.65625 291.5 200.253906 292.132812 203.570312 291.660156 C 206.78125 291.203125 210.53125 288.859375 210.214844 285.175781 C 209.882812 281.382812 206.007812 278.789062 202.523438 278.207031 C 200.117188 277.808594 197.484375 278.058594 195.164062 278.792969 C 192.976562 279.488281 190.894531 280.730469 190.046875 282.964844 C 189.839844 283.515625 190.28125 284.160156 190.8125 284.308594 C 191.425781 284.472656 191.945312 284.097656 192.15625 283.546875 C 192.664062 282.199219 194.195312 281.425781 195.472656 280.988281 C 197.21875 280.390625 199.097656 280.152344 200.941406 280.21875 C 203.652344 280.320312 207.121094 281.871094 207.921875 284.683594 C 208.234375 285.792969 207.910156 286.890625 207.015625 287.777344 C 206.046875 288.738281 204.90625 289.199219 203.605469 289.453125 C 201.078125 289.949219 198.144531 289.5 195.757812 288.472656 C 194.566406 287.960938 193.382812 287.242188 192.640625 286.304688 C 192.304688 285.875 192.132812 285.507812 192.007812 284.984375 C 191.976562 284.855469 191.957031 284.644531 191.972656 284.316406 C 191.980469 284.160156 192.046875 283.867188 192.15625 283.546875 C 192.605469 282.210938 190.5 281.640625 190.046875 282.964844 " fill-opacity="1" fill-rule="nonzero"/><path fill="#000000" d="M 387.054688 309.621094 C 390.085938 308.734375 392.5625 310.902344 393.839844 313.460938 C 395.332031 316.449219 395.839844 320.011719 395.285156 323.300781 C 394.742188 326.5 392.320312 330.171875 388.648438 329.835938 C 384.785156 329.480469 382.335938 325.4375 381.847656 321.933594 C 381.507812 319.492188 381.878906 316.804688 382.742188 314.5 C 383.523438 312.390625 384.824219 310.363281 387.054688 309.621094 C 388.394531 309.179688 388.96875 311.285156 387.636719 311.726562 C 386.261719 312.183594 385.414062 313.625 384.914062 314.902344 C 384.242188 316.613281 383.917969 318.492188 383.914062 320.328125 C 383.90625 323.039062 385.296875 326.664062 388.144531 327.53125 C 390.753906 328.320312 392.574219 325.519531 393.070312 323.265625 C 393.632812 320.707031 393.265625 317.832031 392.320312 315.378906 C 391.855469 314.1875 391.214844 313.109375 390.28125 312.296875 C 389.53125 311.640625 388.644531 311.429688 387.636719 311.726562 C 386.285156 312.121094 385.707031 310.019531 387.054688 309.621094 " fill-opacity="1" fill-rule="nonzero"/><path fill="#000000" d="M 367.851562 275.265625 C 375.65625 282.714844 382 291.699219 386.375 301.558594 C 387.628906 304.378906 388.730469 307.265625 389.667969 310.207031 C 390.09375 311.546875 387.988281 312.121094 387.5625 310.785156 C 384.375 300.777344 379.21875 291.386719 372.449219 283.347656 C 370.527344 281.054688 368.472656 278.875 366.308594 276.808594 C 365.289062 275.835938 366.835938 274.296875 367.851562 275.265625 " fill-opacity="1" fill-rule="nonzero"/><path fill="#000000" d="M 50.640625 373.925781 C 49.621094 376.933594 51.800781 379.488281 54.308594 380.855469 C 57.253906 382.460938 60.851562 383.089844 64.167969 382.621094 C 67.375 382.164062 71.128906 379.820312 70.808594 376.136719 C 70.480469 372.34375 66.601562 369.746094 63.117188 369.167969 C 60.710938 368.769531 58.078125 369.015625 55.757812 369.753906 C 53.570312 370.445312 51.488281 371.691406 50.640625 373.925781 C 50.433594 374.476562 50.875 375.121094 51.40625 375.265625 C 52.019531 375.433594 52.539062 375.058594 52.75 374.503906 C 53.261719 373.15625 54.789062 372.382812 56.066406 371.945312 C 57.816406 371.351562 59.695312 371.113281 61.535156 371.179688 C 64.246094 371.28125 67.714844 372.828125 68.515625 375.644531 C 68.828125 376.75 68.503906 377.847656 67.609375 378.734375 C 66.640625 379.695312 65.5 380.160156 64.203125 380.414062 C 61.671875 380.910156 58.738281 380.460938 56.351562 379.433594 C 55.160156 378.917969 53.976562 378.203125 53.238281 377.261719 C 52.898438 376.835938 52.726562 376.464844 52.601562 375.941406 C 52.570312 375.816406 52.550781 375.605469 52.566406 375.277344 C 52.574219 375.117188 52.640625 374.824219 52.75 374.503906 C 53.203125 373.171875 51.09375 372.597656 50.640625 373.925781 " fill-opacity="1" fill-rule="nonzero"/><path fill="#000000" d="M 112.964844 373.925781 C 111.941406 376.933594 114.121094 379.488281 116.625 380.855469 C 119.574219 382.460938 123.171875 383.089844 126.484375 382.621094 C 129.695312 382.164062 133.449219 379.820312 133.128906 376.136719 C 132.796875 372.34375 128.921875 369.746094 125.4375 369.167969 C 123.03125 368.769531 120.398438 369.015625 118.078125 369.753906 C 115.890625 370.445312 113.808594 371.691406 112.964844 373.925781 C 112.753906 374.476562 113.195312 375.121094 113.726562 375.265625 C 114.339844 375.433594 114.859375 375.058594 115.070312 374.503906 C 115.582031 373.15625 117.109375 372.382812 118.390625 371.945312 C 120.132812 371.351562 122.015625 371.113281 123.855469 371.179688 C 126.566406 371.28125 130.035156 372.828125 130.832031 375.644531 C 131.148438 376.75 130.824219 377.847656 129.929688 378.734375 C 128.957031 379.695312 127.820312 380.160156 126.519531 380.414062 C 123.992188 380.910156 121.058594 380.460938 118.671875 379.433594 C 117.480469 378.917969 116.296875 378.203125 115.558594 377.261719 C 115.21875 376.835938 115.050781 376.464844 114.921875 375.941406 C 114.890625 375.816406 114.871094 375.605469 114.886719 375.277344 C 114.894531 375.117188 114.960938 374.824219 115.070312 374.503906 C 115.523438 373.171875 113.414062 372.597656 112.964844 373.925781 " fill-opacity="1" fill-rule="nonzero"/><path fill="#000000" d="M 74.371094 341.867188 C 72.472656 353.109375 70.574219 364.351562 68.679688 375.589844 C 68.582031 376.171875 68.832031 376.765625 69.441406 376.933594 C 69.964844 377.078125 70.6875 376.757812 70.785156 376.171875 C 72.683594 364.929688 74.578125 353.691406 76.476562 342.445312 C 76.574219 341.867188 76.324219 341.273438 75.714844 341.105469 C 75.1875 340.964844 74.46875 341.28125 74.371094 341.867188 " fill-opacity="1" fill-rule="nonzero"/><path fill="#000000" d="M 105.628906 340.75 C 107.472656 349.5625 109.316406 358.375 111.164062 367.1875 C 111.6875 369.6875 112.210938 372.183594 112.734375 374.683594 C 113.019531 376.058594 115.128906 375.476562 114.839844 374.105469 C 112.996094 365.289062 111.148438 356.480469 109.304688 347.667969 C 108.78125 345.167969 108.257812 342.667969 107.734375 340.171875 C 107.445312 338.796875 105.339844 339.378906 105.628906 340.75 " fill-opacity="1" fill-rule="nonzero"/><path fill="#000000" d="M 185.941406 286.257812 C 184.917969 289.265625 187.097656 291.824219 189.605469 293.191406 C 192.550781 294.796875 196.148438 295.425781 199.464844 294.953125 C 202.671875 294.5 206.425781 292.15625 206.105469 288.472656 C 205.777344 284.679688 201.898438 282.082031 198.414062 281.503906 C 196.011719 281.101562 193.378906 281.351562 191.058594 282.089844 C 188.867188 282.78125 186.785156 284.027344 185.941406 286.257812 C 185.730469 286.808594 186.171875 287.453125 186.703125 287.601562 C 187.316406 287.769531 187.835938 287.390625 188.046875 286.839844 C 188.558594 285.492188 190.085938 284.71875 191.367188 284.28125 C 193.113281 283.683594 194.992188 283.445312 196.835938 283.515625 C 199.546875 283.617188 203.011719 285.164062 203.8125 287.980469 C 204.125 289.085938 203.800781 290.183594 202.90625 291.070312 C 201.9375 292.03125 200.800781 292.496094 199.5 292.75 C 196.96875 293.242188 194.039062 292.792969 191.648438 291.765625 C 190.460938 291.257812 189.277344 290.535156 188.535156 289.597656 C 188.195312 289.167969 188.027344 288.800781 187.898438 288.277344 C 187.867188 288.148438 187.847656 287.9375 187.863281 287.613281 C 187.871094 287.453125 187.9375 287.160156 188.046875 286.839844 C 188.5 285.507812 186.390625 284.933594 185.941406 286.257812 " fill-opacity="1" fill-rule="nonzero"/><path fill="#000000" d="M 150.171875 279.835938 C 157.898438 286.167969 167.660156 289.792969 177.652344 290.101562 C 180.488281 290.1875 183.324219 289.980469 186.125 289.53125 C 186.707031 289.4375 187.03125 288.710938 186.886719 288.1875 C 186.71875 287.570312 186.128906 287.332031 185.542969 287.425781 C 176.277344 288.914062 166.53125 287.15625 158.292969 282.695312 C 155.972656 281.4375 153.757812 279.96875 151.714844 278.292969 C 151.257812 277.921875 150.617188 277.847656 150.171875 278.292969 C 149.78125 278.679688 149.710938 279.460938 150.171875 279.835938 " fill-opacity="1" fill-rule="nonzero"/><path fill="#000000" d="M 8.941406 313.9375 C 5.914062 313.046875 3.441406 315.21875 2.160156 317.777344 C 0.664062 320.765625 0.160156 324.328125 0.714844 327.617188 C 1.257812 330.816406 3.683594 334.488281 7.351562 334.148438 C 11.214844 333.796875 13.664062 329.753906 14.152344 326.25 C 14.492188 323.808594 14.117188 321.121094 13.261719 318.8125 C 12.480469 316.703125 11.179688 314.679688 8.941406 313.9375 C 7.605469 313.492188 7.03125 315.601562 8.363281 316.042969 C 9.742188 316.5 10.582031 317.941406 11.085938 319.214844 C 11.761719 320.925781 12.082031 322.808594 12.089844 324.640625 C 12.09375 327.355469 10.703125 330.980469 7.855469 331.84375 C 5.246094 332.636719 3.425781 329.835938 2.929688 327.578125 C 2.367188 325.023438 2.734375 322.148438 3.683594 319.691406 C 4.144531 318.503906 4.789062 317.421875 5.71875 316.609375 C 6.46875 315.957031 7.355469 315.746094 8.363281 316.042969 C 9.714844 316.4375 10.292969 314.332031 8.941406 313.9375 " fill-opacity="1" fill-rule="nonzero"/><path fill="#000000" d="M 28.148438 279.582031 C 20.34375 287.03125 14 296.015625 9.621094 305.875 C 8.371094 308.695312 7.269531 311.578125 6.332031 314.519531 C 5.90625 315.859375 8.015625 316.4375 8.441406 315.097656 C 11.625 305.09375 16.78125 295.703125 23.546875 287.660156 C 25.472656 285.371094 27.527344 283.191406 29.691406 281.125 C 30.710938 280.152344 29.164062 278.609375 28.148438 279.582031 " fill-opacity="1" fill-rule="nonzero"/><path fill="#000000" d="M 60.585938 243.777344 C 58.332031 245.667969 55.902344 247.316406 53.351562 248.699219 C 51.460938 249.722656 49.503906 250.578125 47.582031 251.53125 C 45.824219 252.40625 44.144531 253.414062 42.652344 254.757812 C 40.875 256.355469 39.46875 258.394531 38.320312 260.542969 C 35.476562 265.886719 33.847656 271.921875 33.4375 278.050781 C 33.042969 283.894531 33.765625 289.9375 35.835938 295.375 C 37.863281 300.699219 41.160156 305.414062 45.710938 308.523438 C 50.722656 311.949219 56.847656 312.980469 62.652344 311.800781 C 68.421875 310.632812 73.816406 307.148438 77.097656 301.851562 C 80.347656 296.613281 81.3125 289.917969 80.140625 283.792969 C 78.972656 277.695312 75.496094 272.191406 70.328125 269.261719 C 65.296875 266.410156 59.121094 265.898438 53.734375 267.851562 C 51.070312 268.820312 48.585938 270.378906 46.582031 272.511719 C 44.285156 274.957031 42.648438 278.066406 41.652344 281.359375 C 39.53125 288.375 40.34375 296.007812 42.773438 302.796875 C 45.347656 309.988281 49.425781 316.546875 53.742188 322.65625 C 57.757812 328.34375 62.277344 333.664062 67.636719 337.925781 C 72.800781 342.03125 78.773438 344.9375 85.195312 345.691406 C 92.578125 346.558594 99.878906 344.359375 106.566406 341.144531 C 110.019531 339.484375 113.34375 337.539062 116.613281 335.5 C 119.601562 333.636719 122.574219 331.738281 125.480469 329.730469 C 130.828125 326.042969 136.097656 321.777344 139.574219 315.957031 C 143.222656 309.84375 144.085938 302.554688 142.660156 295.519531 C 141.191406 288.289062 137.621094 281.644531 133.25 276 C 128.964844 270.464844 123.8125 265.644531 118.023438 262.011719 C 112.3125 258.433594 105.9375 256.023438 99.34375 255.355469 C 93.101562 254.726562 86.652344 255.722656 80.851562 258.292969 C 75.058594 260.863281 69.855469 264.964844 66.222656 270.503906 C 62.710938 275.855469 60.871094 282.476562 60.851562 289.015625 C 60.835938 295.515625 62.675781 301.988281 66.464844 307.09375 C 70.082031 311.972656 75.355469 315.195312 80.957031 316.636719 C 86.6875 318.105469 92.792969 317.851562 98.441406 316.09375 C 104.460938 314.21875 109.839844 310.511719 114.304688 305.820312 C 118.9375 300.949219 122.585938 295.039062 125.371094 288.765625 C 128.207031 282.375 130.300781 275.53125 131.394531 268.542969 C 132.5 261.496094 132.632812 254.152344 130.929688 247.199219 C 129.230469 240.273438 125.605469 234.128906 120.398438 229.65625 C 115.171875 225.160156 108.875 222.308594 102.425781 220.53125 C 95.316406 218.574219 87.851562 217.777344 80.535156 218.578125 C 73.496094 219.351562 66.539062 221.578125 60.519531 225.644531 C 55.21875 229.222656 50.636719 234.113281 47.433594 239.910156 C 44.3125 245.5625 42.507812 252.164062 42.816406 258.761719 C 43.105469 265.082031 45.148438 271.355469 48.660156 276.4375 C 52.105469 281.429688 57.03125 285.449219 62.734375 286.839844 C 68.027344 288.132812 73.703125 287.140625 78.480469 284.4375 C 83.109375 281.820312 86.988281 277.390625 88.367188 271.878906 C 90.03125 265.222656 87.828125 258.125 83.699219 253.050781 C 79.117188 247.414062 72.21875 244.683594 65.375 244.445312 C 58.976562 244.21875 52.601562 246.132812 47.078125 249.574219 C 41.789062 252.863281 37.265625 257.519531 33.84375 262.949219 C 30.269531 268.621094 28.039062 275.121094 27.210938 281.90625 C 26.324219 289.214844 27.082031 296.734375 29.171875 303.742188 C 31.222656 310.601562 34.527344 317.085938 38.957031 322.503906 C 42.996094 327.441406 48.003906 331.523438 53.515625 334.378906 C 58.96875 337.203125 64.984375 338.898438 71.0625 338.859375 C 77.253906 338.816406 83.28125 336.863281 88.46875 333.21875 C 94.058594 329.289062 98.503906 323.78125 102.234375 317.882812 C 106.222656 311.585938 109.667969 304.777344 112.277344 297.695312 C 114.949219 290.449219 116.699219 282.570312 116.09375 274.734375 C 115.554688 267.714844 113.109375 261.144531 108.800781 255.820312 C 104.851562 250.945312 99.566406 247.304688 93.820312 245.410156 C 87.988281 243.488281 81.726562 243.519531 75.921875 245.558594 C 70.03125 247.628906 64.742188 251.535156 60.671875 256.539062 C 56.390625 261.804688 53.496094 268.203125 52.277344 275.070312 C 50.949219 282.546875 51.464844 290.34375 53.527344 297.613281 C 55.496094 304.558594 58.875 310.960938 63.304688 316.429688 C 67.539062 321.660156 72.742188 326.023438 78.488281 329.164062 C 84.183594 332.269531 90.375 334.15625 96.742188 334.667969 C 102.972656 335.171875 109.304688 334.367188 115.285156 332.441406 C 121.304688 330.503906 127.035156 327.429688 132.035156 323.328125 C 137.101562 319.171875 141.382812 314.03125 144.628906 308.128906 C 147.886719 302.191406 150.105469 295.578125 151.203125 288.789062 C 152.308594 281.933594 152.316406 274.914062 151.167969 268.0625 C 150.039062 261.347656 147.734375 254.882812 144.414062 249.066406 C 141.183594 243.410156 137.042969 238.351562 132.269531 234.152344 C 127.457031 229.910156 122.046875 226.519531 116.234375 224.136719 C 110.308594 221.710938 103.972656 220.398438 97.632812 220.390625 C 90.980469 220.382812 84.292969 221.792969 78.257812 224.839844 C 72.386719 227.800781 67.335938 232.402344 63.769531 238.238281 C 60.289062 243.941406 58.277344 250.617188 57.742188 257.398438 C 57.214844 264.121094 58.234375 270.921875 60.75 277.097656 C 63.179688 283.046875 66.984375 288.378906 71.636719 292.511719 C 76.261719 296.621094 81.753906 299.648438 87.652344 300.921875 C 93.542969 302.191406 99.640625 301.65625 105.25 299.316406 C 110.789062 297.007812 115.792969 293.179688 119.566406 288.234375 C 123.347656 283.265625 125.867188 277.265625 126.421875 270.84375 C 126.988281 264.296875 125.417969 257.65625 122.4375 251.960938 C 119.429688 246.21875 114.953125 241.324219 109.628906 238.050781 C 104.046875 234.621094 97.546875 233.121094 91.140625 233.421875 C 84.632812 233.726562 78.207031 235.800781 72.585938 239.328125 C 66.890625 242.902344 62.144531 248.011719 58.605469 253.976562 C 55.054688 259.96875 52.71875 266.804688 51.683594 273.8125 C 50.683594 280.589844 50.855469 287.5 52.265625 294.195312 C 53.59375 300.5 55.980469 306.566406 59.191406 312.03125 C 62.398438 317.484375 66.4375 322.398438 71.148438 326.40625 C 75.863281 330.414062 81.203125 333.542969 86.964844 335.425781 C 92.53125 337.246094 98.433594 337.816406 104.21875 337.214844 C 110 336.609375 115.636719 334.902344 120.886719 332.222656 C 126.0625 329.582031 130.839844 325.957031 134.824219 321.523438 C 138.820312 317.082031 142 311.820312 144.023438 306.03125 C 145.984375 300.425781 146.773438 294.355469 146.511719 288.382812 C 146.246094 282.363281 144.9375 276.441406 142.734375 270.902344 C 140.5625 265.453125 137.457031 260.398438 133.5625 256.191406 C 129.574219 251.875 124.734375 248.480469 119.390625 246.457031 C 113.59375 244.261719 107.214844 243.683594 101.175781 244.949219 C 95.203125 246.199219 89.597656 249.46875 85.753906 254.597656 C 81.667969 260.050781 79.710938 266.886719 79.15625 273.789062 C 78.574219 281.066406 79.425781 288.691406 81.601562 295.605469 C 83.832031 302.679688 87.761719 309.152344 93.679688 313.230469 C 99.058594 316.9375 105.828125 318.339844 111.925781 315.933594 C 117.5 313.726562 121.941406 308.9375 124.636719 303.3125 C 127.613281 297.089844 128.292969 290.144531 127.101562 283.300781 C 125.816406 275.941406 122.492188 269.089844 118.339844 263.140625 C 114.269531 257.3125 109.355469 251.804688 103.386719 248.222656 C 97.777344 244.859375 91.210938 243.601562 85.011719 245.777344 C 79.242188 247.800781 74.5 252.253906 71 257.492188 C 67.335938 262.972656 65.089844 269.386719 64.148438 276.042969 C 63.148438 283.117188 63.480469 290.363281 65.085938 297.304688 C 66.683594 304.230469 69.546875 310.863281 73.546875 316.5625 C 77.574219 322.300781 82.761719 327.320312 88.949219 330.183594 C 94.855469 332.914062 101.339844 333.4375 107.480469 331.285156 C 113.316406 329.242188 118.464844 325.167969 122.203125 319.957031 C 125.8125 314.925781 128.070312 308.84375 128.199219 302.457031 C 128.316406 296.703125 126.835938 290.699219 123.347656 286.238281 C 119.714844 281.59375 114.027344 279.59375 108.539062 280.988281 C 102.859375 282.4375 97.96875 287.167969 96.449219 293.289062 C 94.878906 299.605469 96.742188 306.625 100.824219 311.398438 C 105.21875 316.539062 112.03125 318.429688 118.320312 317.320312 C 124.613281 316.214844 129.894531 311.886719 133.171875 306.097656 C 136.449219 300.316406 137.792969 293.355469 137.382812 286.632812 C 136.886719 278.484375 134.164062 270.734375 130.730469 263.523438 C 127.632812 257.027344 124.054688 250.550781 119.242188 245.335938 C 116.917969 242.816406 114.261719 240.59375 111.308594 238.988281 C 108.097656 237.238281 104.617188 236.246094 101.050781 235.828125 C 93.710938 234.96875 86.292969 236.546875 79.160156 238.292969 C 73.097656 239.773438 67.011719 241.351562 61.234375 243.875 C 55.792969 246.253906 50.507812 249.496094 46.664062 254.367188 C 42.253906 259.953125 40.289062 267.125 40.664062 274.40625 C 41.070312 282.160156 43.917969 289.441406 47.96875 295.792969 C 51.9375 302.019531 56.90625 307.539062 62.179688 312.5 C 67.351562 317.367188 72.988281 321.699219 79.046875 325.191406 C 85.023438 328.636719 91.433594 331.289062 98.089844 332.722656 C 104.410156 334.085938 110.890625 334.378906 117.261719 333.261719 C 123.128906 332.234375 128.84375 330.066406 134.019531 326.917969 C 139.097656 323.828125 143.714844 319.742188 147.308594 314.785156 C 150.972656 309.726562 153.550781 303.84375 154.628906 297.523438 C 155.800781 290.617188 155.253906 283.507812 153.390625 276.800781 C 151.488281 269.964844 148.316406 263.5625 144.433594 257.792969 C 140.480469 251.910156 135.796875 246.601562 130.589844 241.984375 C 125.066406 237.085938 119.011719 232.792969 112.441406 229.703125 C 105.921875 226.636719 98.878906 224.726562 91.730469 224.929688 C 85.453125 225.105469 79.324219 226.953125 73.800781 230.152344 C 68.429688 233.269531 63.667969 237.59375 59.714844 242.582031 C 55.652344 247.707031 52.398438 253.519531 50.03125 259.75 C 47.269531 267.015625 45.734375 274.855469 45.453125 282.695312 C 45.171875 290.695312 46.25 298.808594 48.871094 306.316406 C 51.105469 312.707031 54.4375 318.625 58.667969 323.714844 C 62.875 328.773438 68.007812 333.003906 73.734375 335.878906 C 79.726562 338.882812 86.296875 340.359375 92.90625 340.246094 C 99.574219 340.128906 106.203125 338.433594 112.195312 335.28125 C 118.09375 332.183594 123.226562 327.601562 127.230469 322.015625 C 131.203125 316.476562 134.0625 310.003906 135.53125 303.183594 C 136.980469 296.457031 137.136719 289.308594 135.558594 282.589844 C 134.023438 276.054688 130.742188 269.8125 125.441406 266.019531 C 121.011719 262.847656 115.53125 262.082031 110.378906 263.191406 C 105.167969 264.320312 100.265625 267.332031 96.644531 271.503906 C 94.84375 273.574219 93.328125 275.957031 92.277344 278.5625 C 91.089844 281.507812 90.445312 284.707031 90.105469 287.886719 C 89.480469 293.738281 90.402344 299.773438 93.277344 304.847656 C 95.851562 309.382812 99.734375 312.847656 104.039062 315.363281 C 105.15625 316.015625 106.152344 314.183594 105.035156 313.53125 C 100.273438 310.746094 96.121094 306.785156 93.820312 301.425781 C 91.601562 296.269531 91.472656 290.367188 92.542969 284.875 C 93.097656 282.058594 93.90625 279.375 95.292969 276.898438 C 96.589844 274.589844 98.265625 272.550781 100.183594 270.816406 C 103.886719 267.460938 108.640625 265.21875 113.492188 264.867188 C 118.671875 264.488281 123.585938 266.398438 127.273438 270.359375 C 131.496094 274.898438 133.730469 281.320312 134.433594 287.609375 C 135.90625 300.757812 131.429688 314.4375 123.046875 324.050781 C 114.296875 334.082031 101.394531 339.058594 88.703125 337.980469 C 76.414062 336.9375 65.320312 329.753906 57.84375 319.351562 C 49.511719 307.75 46.316406 292.894531 47.710938 278.429688 C 49.011719 264.890625 54.261719 251.75 62.992188 241.832031 C 67.003906 237.277344 71.71875 233.4375 77.019531 230.789062 C 82.558594 228.019531 88.640625 226.765625 94.742188 227.089844 C 101.460938 227.445312 108.019531 229.652344 114.03125 232.832031 C 120.15625 236.074219 125.855469 240.296875 130.992188 245.125 C 140.542969 254.105469 148.71875 265.777344 151.945312 279.144531 C 153.476562 285.488281 153.765625 292.171875 152.414062 298.585938 C 151.175781 304.441406 148.589844 309.894531 145 314.492188 C 137.71875 323.824219 126.929688 329.664062 115.785156 331.371094 C 103.285156 333.289062 90.449219 329.46875 79.511719 323.046875 C 73.710938 319.640625 68.308594 315.476562 63.347656 310.78125 C 58.292969 306 53.484375 300.707031 49.671875 294.722656 C 45.863281 288.75 43.082031 281.929688 42.652344 274.628906 C 42.253906 267.761719 43.996094 260.914062 48.222656 255.664062 C 51.910156 251.085938 56.917969 248 62.09375 245.78125 C 67.601562 243.414062 73.386719 241.890625 79.15625 240.46875 C 86 238.78125 93.042969 237.234375 100.097656 237.855469 C 103.496094 238.152344 106.890625 239.023438 109.960938 240.636719 C 112.796875 242.121094 115.328125 244.164062 117.570312 246.542969 C 122.230469 251.484375 125.65625 257.652344 128.664062 263.851562 C 131.949219 270.613281 134.675781 277.910156 135.328125 285.570312 C 135.882812 292.03125 134.847656 298.6875 131.835938 304.359375 C 128.867188 309.945312 124.027344 314.082031 118.074219 315.222656 C 112.199219 316.347656 105.828125 314.402344 101.871094 309.472656 C 98.269531 304.992188 96.847656 298.421875 98.65625 292.777344 C 100.398438 287.347656 105.417969 283.324219 110.691406 282.730469 C 115.835938 282.152344 120.515625 284.960938 123.207031 289.621094 C 125.871094 294.234375 126.691406 300.023438 126.023438 305.359375 C 125.273438 311.320312 122.449219 316.890625 118.613281 321.210938 C 114.621094 325.707031 109.414062 328.984375 103.707031 330.132812 C 97.613281 331.355469 91.441406 329.664062 86.1875 326.269531 C 75.277344 319.21875 68.34375 306.109375 66.230469 292.839844 C 64.1875 280.03125 66.515625 265.855469 74.675781 255.910156 C 78.339844 251.441406 83.132812 247.953125 88.683594 247.007812 C 94.925781 245.945312 101.011719 248.628906 105.972656 252.542969 C 111.25 256.707031 115.734375 262.3125 119.226562 268.242188 C 122.757812 274.242188 125.339844 281.070312 125.675781 288.226562 C 125.96875 294.476562 124.347656 300.59375 120.972656 305.699219 C 117.832031 310.449219 113.015625 314.222656 107.535156 314.90625 C 101.265625 315.683594 95.105469 312.648438 90.707031 307.964844 C 85.863281 302.816406 83.242188 295.753906 81.945312 288.671875 C 79.660156 276.160156 80.835938 260.648438 90.824219 252.167969 C 99.945312 244.425781 113.515625 245 123.398438 250.65625 C 132.695312 255.980469 139.382812 265.628906 142.519531 276.335938 C 145.699219 287.1875 145.316406 299.273438 140.457031 309.492188 C 135.472656 319.980469 126.488281 327.914062 116.300781 332.027344 C 105.902344 336.226562 94.367188 336.496094 83.996094 332.0625 C 73.328125 327.503906 64.546875 318.449219 59.101562 307.667969 C 53.417969 296.414062 51.558594 283.285156 54.242188 270.769531 C 57.085938 257.496094 64.8125 245.550781 76.375 239.570312 C 87.34375 233.886719 100.898438 233.917969 111.066406 241.539062 C 120.46875 248.59375 126.476562 261.523438 124.007812 273.871094 C 121.648438 285.699219 112.363281 295.183594 101.667969 298.355469 C 90.4375 301.691406 78.597656 297.152344 70.472656 288.519531 C 66.4375 284.234375 63.257812 278.964844 61.4375 273.171875 C 59.515625 267.074219 59.089844 260.445312 60.113281 254.105469 C 61.136719 247.75 63.546875 241.582031 67.339844 236.558594 C 71.269531 231.359375 76.5625 227.539062 82.40625 225.273438 C 93.992188 220.785156 107.082031 221.972656 118.246094 227.3125 C 129.066406 232.484375 138.34375 241.382812 144.027344 252.585938 C 149.882812 264.117188 151.445312 277.824219 148.863281 290.621094 C 146.265625 303.511719 139.496094 315.175781 129.402344 322.777344 C 119.632812 330.136719 107.445312 333.710938 95.554688 332.433594 C 83.332031 331.113281 71.9375 324.238281 64.085938 314.15625 C 55.679688 303.359375 51.550781 288.449219 54.386719 274.546875 C 56.945312 262.015625 65.648438 251.046875 77.21875 247.347656 C 82.777344 245.570312 88.648438 245.757812 94.136719 247.75 C 99.546875 249.714844 104.417969 253.359375 108.027344 258.117188 C 111.980469 263.328125 114.007812 269.847656 114.21875 276.535156 C 114.449219 284.003906 112.597656 291.371094 109.960938 298.222656 C 107.375 304.949219 103.996094 311.445312 100.136719 317.425781 C 96.539062 323 92.21875 328.21875 86.820312 331.832031 C 81.839844 335.164062 76.140625 336.835938 70.277344 336.730469 C 64.613281 336.625 59.003906 334.960938 53.945312 332.246094 C 48.6875 329.421875 43.960938 325.492188 40.117188 320.710938 C 35.929688 315.496094 32.820312 309.226562 30.925781 302.660156 C 29 295.96875 28.308594 288.828125 29.191406 281.867188 C 30.003906 275.46875 32.183594 269.371094 35.550781 264.023438 C 42.203125 253.460938 53.511719 246.066406 65.582031 246.578125 C 72.035156 246.851562 78.40625 249.53125 82.609375 254.9375 C 86.300781 259.691406 88.066406 266.34375 86.175781 272.328125 C 82.9375 282.589844 70.6875 287.535156 61.527344 284.277344 C 50.886719 280.492188 44.421875 268.019531 44.769531 256.351562 C 45.152344 243.449219 53.488281 232.046875 63.746094 226.078125 C 75.964844 218.96875 91.019531 219.082031 104.082031 223.226562 C 110.144531 225.148438 116.085938 228.128906 120.765625 232.785156 C 125.421875 237.414062 128.324219 243.511719 129.535156 250.175781 C 130.746094 256.832031 130.339844 263.785156 129.074219 270.390625 C 127.800781 277.023438 125.6875 283.523438 122.8125 289.550781 C 117.347656 300.996094 108.472656 311.320312 96.492188 314.453125 C 85.988281 317.199219 73.414062 314.421875 67.019531 304.359375 C 60.550781 294.1875 61.808594 279.492188 68.972656 270.101562 C 76.609375 260.089844 89.5625 255.804688 101.28125 257.734375 C 113.914062 259.816406 125.167969 268.199219 132.917969 278.921875 C 136.921875 284.453125 140.066406 290.984375 141.082031 297.964844 C 142.058594 304.683594 140.503906 311.339844 136.660156 316.738281 C 132.925781 321.980469 127.707031 325.777344 122.546875 329.207031 C 116.636719 333.136719 110.609375 337.070312 104.183594 339.957031 C 97.796875 342.828125 90.785156 344.59375 83.855469 343.371094 C 77.804688 342.304688 72.238281 339.207031 67.46875 335.132812 C 62.503906 330.894531 58.265625 325.71875 54.515625 320.242188 C 50.460938 314.328125 46.546875 308 44.265625 301.027344 C 42.136719 294.515625 41.601562 287.308594 43.9375 280.769531 C 44.988281 277.8125 46.695312 275.101562 48.949219 273.0625 C 50.949219 271.253906 53.386719 270.046875 55.914062 269.386719 C 61.039062 268.054688 66.714844 269.015625 71.089844 272.230469 C 75.527344 275.492188 78.109375 281.105469 78.566406 286.785156 C 79.039062 292.640625 77.453125 298.730469 73.699219 303.085938 C 69.933594 307.457031 64.46875 309.890625 58.972656 310.140625 C 53.625 310.378906 48.355469 308.539062 44.292969 304.765625 C 40.476562 301.222656 37.945312 296.382812 36.585938 291.203125 C 35.171875 285.804688 34.945312 280.023438 35.800781 274.496094 C 36.234375 271.691406 36.941406 268.929688 37.925781 266.289062 C 38.898438 263.691406 40.105469 261.085938 41.710938 258.867188 C 43.894531 255.847656 46.777344 254.203125 50.007812 252.679688 C 51.820312 251.820312 53.632812 250.964844 55.378906 249.957031 C 57.710938 248.613281 59.898438 247.023438 61.984375 245.277344 C 62.40625 244.925781 62.328125 244.144531 61.984375 243.777344 C 61.566406 243.328125 61.007812 243.421875 60.585938 243.777344 " fill-opacity="1" fill-rule="nonzero"/></svg>